<svg xmlns="http://www.w3.org/2000/svg" xmlns:xlink="http://www.w3.org/1999/xlink" width="1405.83" height="1819.3"><g transform="translate(0 0)"><path d="M971.08 478.77h395v132h-395z" stroke="#494949" stroke-width="2" fill="#fff"/><use xlink:href="#a" transform="matrix(1,0,0,1,986.0782573206816,493.76618051462754) translate(95.17500000000001 54.6)"/><path d="M210.2 271.08l170.13 60-170.13 60-170.12-60z" stroke="#494949" stroke-width="2" fill="#fff"/><use xlink:href="#b" transform="matrix(1,0,0,1,55.07825732068159,286.0782573206816) translate(71.67500000000001 48.6)"/><path d="M40.08 478.77H472.4v132.4H40.1z" stroke="#494949" stroke-width="2" fill="#fff"/><use xlink:href="#c" transform="matrix(1,0,0,1,55.07825732068153,493.76618051462765) translate(132.475 43.22)"/><use xlink:href="#d" transform="matrix(1,0,0,1,55.07825732068153,493.76618051462765) translate(152.475 43.22)"/><use xlink:href="#e" transform="matrix(1,0,0,1,55.07825732068153,493.76618051462765) translate(105.62500000000001 66.98)"/><use xlink:href="#f" transform="matrix(1,0,0,1,55.07825732068153,493.76618051462765) translate(125.62500000000001 66.98)"/><path d="M505.58 479.08H937.9v132.4H505.6z" stroke="#494949" stroke-width="2" fill="#fff"/><use xlink:href="#c" transform="matrix(1,0,0,1,520.5782573206816,494.0782573206816) translate(105.62500000000001 43.22)"/><use xlink:href="#g" transform="matrix(1,0,0,1,520.5782573206816,494.0782573206816) translate(125.62500000000001 43.22)"/><use xlink:href="#e" transform="matrix(1,0,0,1,520.5782573206816,494.0782573206816) translate(90.72500000000002 66.98)"/><use xlink:href="#h" transform="matrix(1,0,0,1,520.5782573206816,494.0782573206816) translate(110.72500000000002 66.98)"/><path d="M718.33 477.08v-56H500.08v-90H380.33" stroke="#494949" stroke-width="2" fill="none"/><path d="M718.33 477.08l-4.63-14.27h9.27z" fill="#494949"/><path d="M718.73 479.08h-.8l-5.6-17.27h12zm-3.66-15.27l3.26 10.04 3.26-10.03zM380.33 332.08h-2.84l2.83-1-2.84-1h2.83z" fill="#494949"/><use xlink:href="#i" transform="matrix(1,0,0,1,687.3804104307294,435.9360264491017) translate(0.005000000000000782 14.4)"/><path d="M380.33 331.08h119.75v90H256.24v57.7" stroke="#494949" stroke-width="2" fill="none"/><path d="M380.33 332.08h-2.84l2.83-1-2.84-1h2.83zM256.24 478.77l-4.63-14.27h9.28z" fill="#494949"/><path d="M257.3 478.77h-2.1l-4.97-15.27h12.03zm-4.32-13.27l3.26 10.03 3.26-10.03z" fill="#494949"/><use xlink:href="#j" transform="matrix(1,0,0,1,218.89354657687983,432.07323866515105) translate(0.005000000000000782 14.4)"/><path d="M486.4 697.08l87.5 60-87.5 60-87.5-60z" stroke="#494949" stroke-width="2" fill="#fff"/><use xlink:href="#k" transform="matrix(1,0,0,1,403.90883583307823,702.0782573206816) translate(12.5 58.6)"/><path d="M786.4 697.08l119.68 60-119.67 60-119.66-60z" stroke="#494949" stroke-width="2" fill="#fff"/><use xlink:href="#l" transform="matrix(1,0,0,1,671.739414345475,702.0782573206816) translate(27.599999999999994 58.6)"/><use xlink:href="#m" transform="matrix(1,0,0,1,671.739414345475,702.0782573206816) translate(178.5 58.6)"/><path d="M575.68 757.08h91.06" stroke="#494949" stroke-width="2" fill="none"/><path d="M575.68 758.08h-3v-.16l1.23-.84-1.22-.85v-.15h3zM666.74 757.08l-14.27 4.63v-9.26z" fill="#494949"/><path d="M668 756.44l-1.26.64 1.27.64-16.53 5.37v-12.03zm-14.53 3.9l10.03-3.26-10.03-3.26z" fill="#494949"/><use xlink:href="#n" transform="matrix(1,0,0,1,599.4142219551119,761.0782573206817) translate(0 14.4)"/><path d="M89.08 692.74c0 14.42-12.54 26.1-28 26.1-15.47 0-28-11.68-28-26.1 0-14.42 12.53-26.1 28-26.1 15.46 0 28 11.68 28 26.1z" stroke="#494949" stroke-width="2" fill="#fff"/><use xlink:href="#o" transform="matrix(1,0,0,1,38.07825732068156,671.6299500964155) translate(5.524999999999999 25.1)"/><path d="M89.08 757.2c0 14.4-12.54 26.1-28 26.1-15.47 0-28-11.7-28-26.1 0-14.43 12.53-26.12 28-26.12 15.46 0 28 11.7 28 26.1z" stroke="#494949" stroke-width="2" fill="#fff"/><use xlink:href="#p" transform="matrix(1,0,0,1,38.07825732068156,736.0782573206816) translate(5.524999999999999 25.1)"/><path d="M89.08 821.64c0 14.42-12.54 26.1-28 26.1-15.47 0-28-11.68-28-26.1 0-14.42 12.53-26.1 28-26.1 15.46 0 28 11.68 28 26.1z" stroke="#494949" stroke-width="2" fill="#fff"/><use xlink:href="#q" transform="matrix(1,0,0,1,38.07825732068156,800.5265645449476) translate(5.524999999999999 25.1)"/><path d="M90.97 691.08h37.5v65.8H166" stroke="#494949" stroke-width="2" fill="none"/><path d="M90.97 692.08h-1.94l-.14-2h2.07zM166 756.9l-14.28 4.62v-9.27z" fill="#494949"/><path d="M166.07 755.86l-.08 1.03.06 1.02-15.34 4.98v-12.02zm-13.35 4.3l10.03-3.27-10.03-3.27z" fill="#494949"/><path d="M89.34 831.08h38.32v-74.2H166" stroke="#494949" stroke-width="2" fill="none"/><path d="M89.34 832.08h-2.7l.9-1.86.03-.14h1.77zM166 756.9l-14.28 4.62v-9.27z" fill="#494949"/><path d="M166.07 755.86l-.08 1.03.06 1.02-15.34 4.98v-12.02zm-13.35 4.3l10.03-3.27-10.03-3.27z" fill="#494949"/><path d="M89.08 757.2h38.45v-.3H166" stroke="#494949" stroke-width="2" fill="none"/><path d="M89.08 758.2h-.1l.1-1-.07-1h.08zM166 756.9l-14.28 4.62v-9.27z" fill="#494949"/><path d="M166.07 755.86l-.08 1.03.06 1.02-15.34 4.98v-12.02zm-13.35 4.3l10.03-3.27-10.03-3.27z" fill="#494949"/><path d="M1061.08 822.1c0 14.4-12.54 26.1-28 26.1-15.47 0-28-11.7-28-26.1 0-14.43 12.53-26.13 28-26.13 15.46 0 28 11.7 28 26.12z" stroke="#494949" stroke-width="2" fill="#fff"/><use xlink:href="#r" transform="matrix(1,0,0,1,1010.0782573206816,800.9748717692137) translate(5.524999999999999 25.1)"/><path d="M906.08 757.08h34v-64.1h65" stroke="#494949" stroke-width="2" fill="none"/><path d="M906.08 758.08h-2l2-1-2-1h2zM1005.08 692.97l-14.27 4.63v-9.27z" fill="#494949"/><path d="M1005.17 691.94l-.1 1.03.08 1.02-15.34 4.98v-12.03zm-13.36 4.3l10.04-3.27-10.03-3.26z" fill="#494949"/><path d="M1061.08 757.53c0 14.42-12.54 26.1-28 26.1-15.47 0-28-11.68-28-26.1 0-14.42 12.53-26.12 28-26.12 15.46 0 28 11.7 28 26.13z" stroke="#494949" stroke-width="2" fill="#fff"/><use xlink:href="#s" transform="matrix(1,0,0,1,1010.0782573206816,736.4144877388685) translate(5.524999999999999 25.1)"/><path d="M1061.08 692.97c0 14.42-12.54 26.1-28 26.1-15.47 0-28-11.68-28-26.1 0-14.43 12.53-26.12 28-26.12 15.46 0 28 11.7 28 26.12z" stroke="#494949" stroke-width="2" fill="#fff"/><use xlink:href="#t" transform="matrix(1,0,0,1,1010.0782573206816,671.8541037085233) translate(5.524999999999999 25.1)"/><path d="M1253.08 697.08l100 60-100 60-100-60z" stroke="#494949" stroke-width="2" fill="#fff"/><use xlink:href="#u" transform="matrix(1,0,0,1,1158.0782573206816,702.0782573206816) translate(5 58.6)"/><path d="M1253.08 902.08l119.67 60-119.67 60-119.67-60z" stroke="#494949" stroke-width="2" fill="#fff"/><use xlink:href="#l" transform="matrix(1,0,0,1,1138.4088358330782,907.0782573206816) translate(27.599999999999994 58.6)"/><use xlink:href="#m" transform="matrix(1,0,0,1,1138.4088358330782,907.0782573206816) translate(178.5 58.6)"/><path d="M1062.95 691.08H1108v66h45.08" stroke="#494949" stroke-width="2" fill="none"/><path d="M1062.95 692.08h-1.93l-.15-2h2.08zM1153.08 757.08l-14.27 4.63v-9.26z" fill="#494949"/><path d="M1154.22 756.4l-1.14.68 1.14.68-16.4 5.33v-12.03zm-14.4 3.94l10.02-3.26-10.03-3.26z" fill="#494949"/><path d="M1061.08 822.1h46v-65.02h46" stroke="#494949" stroke-width="2" fill="none"/><path d="M1061.08 823.1h-.1l.1-1-.07-1h.08zM1153.08 757.08l-14.27 4.63v-9.26z" fill="#494949"/><path d="M1154.22 756.4l-1.14.68 1.14.68-16.4 5.33v-12.03zm-14.4 3.94l10.02-3.26-10.03-3.26z" fill="#494949"/><path d="M1063.08 757.53h89.34" stroke="#494949" stroke-width="2" fill="none"/><path d="M1063.08 758.53h-2.1l.1-1-.07-1h2.08zM1152.42 757.53l-14.27 4.63v-9.27z" fill="#494949"/><path d="M1153.5 756.83l-.42.25 1.4.83-17.33 5.64V751.5zm-14.35 3.96l10.03-3.27-10.03-3.26z" fill="#494949"/><path d="M981.08 1027.64c0 14.42-12.54 26.1-28 26.1-15.47 0-28-11.68-28-26.1 0-14.42 12.53-26.1 28-26.1 15.46 0 28 11.68 28 26.1z" stroke="#494949" stroke-width="2" fill="#fff"/><use xlink:href="#r" transform="matrix(1,0,0,1,930.0782573206817,1006.5265645449476) translate(5.524999999999999 25.1)"/><path d="M981.08 963.08c0 14.42-12.54 26.1-28 26.1-15.47 0-28-11.68-28-26.1 0-14.42 12.53-26.1 28-26.1 15.46 0 28 11.68 28 26.1z" stroke="#494949" stroke-width="2" fill="#fff"/><use xlink:href="#s" transform="matrix(1,0,0,1,930.0782573206817,941.9661805146025) translate(5.524999999999999 25.1)"/><path d="M981.08 898.52c0 14.42-12.54 26.1-28 26.1-15.47 0-28-11.68-28-26.1 0-14.42 12.53-26.1 28-26.1 15.46 0 28 11.68 28 26.1z" stroke="#494949" stroke-width="2" fill="#fff"/><use xlink:href="#t" transform="matrix(1,0,0,1,930.0782573206817,877.4057964842573) translate(5.524999999999999 25.1)"/><path d="M1133.4 962.08h-75.33V902.4h-75.33" stroke="#494949" stroke-width="2" fill="none"/><path d="M1133.4 962.08l2 1h-2v-2h2zM997 907.04l-14.26-4.63 14.27-4.63z" fill="#494949"/><path d="M998 908.42l-17.3-5.63.07-.8 17.24-5.6zm-12.02-6l10.03 3.24v-6.5z" fill="#494949"/><path d="M1133.4 962.08h-76.16v1h-76.16" stroke="#494949" stroke-width="2" fill="none"/><path d="M1133.4 962.08l2 1h-2v-2h2zM995.34 967.7l-14.26-4.62 14.26-4.64z" fill="#494949"/><path d="M996.34 969.1l-15.35-5 .08-1.02-.07-1.03 15.34-4.98zm-12.03-6.02l10.04 3.26v-6.52z" fill="#494949"/><path d="M1133.4 962.08h-76.16v65.56h-76.16" stroke="#494949" stroke-width="2" fill="none"/><path d="M1133.4 962.08l2 1h-2v-2h2zM995.34 1032.27l-14.26-4.63 14.26-4.64z" fill="#494949"/><path d="M996.34 1033.65l-15.35-5 .08-1-.07-1.04 15.34-4.97zm-12.03-6l10.04 3.25v-6.52z" fill="#494949"/><path d="M540.08 925.08h260v75h-260z" stroke="#494949" stroke-width="2" fill="#fff"/><use xlink:href="#v" transform="matrix(1,0,0,1,545.0782573206816,930.0782573206816) translate(12.125000000000014 25.299999999999997)"/><use xlink:href="#w" transform="matrix(1,0,0,1,545.0782573206816,930.0782573206816) translate(87.6 46.9)"/><use xlink:href="#m" transform="matrix(1,0,0,1,545.0782573206816,930.0782573206816) translate(138.5 46.9)"/><path d="M925.08 898.52h-62.5v64.06h-62.5" stroke="#494949" stroke-width="2" fill="none"/><path d="M925.08 898.52l.07 1h-.07v-2h.1zM814.34 967.2l-14.26-4.62 14.26-4.64z" fill="#494949"/><path d="M815.34 968.6l-15.26-4.97v-2.1l15.26-4.96zm-12.03-6.02l10.04 3.26v-6.52z" fill="#494949"/><path d="M925.08 963.08h-62.5v-.5h-62.5" stroke="#494949" stroke-width="2" fill="none"/><path d="M925.08 963.08l.07 1h-.07v-2h.1zM814.34 967.2l-14.26-4.62 14.26-4.64z" fill="#494949"/><path d="M815.34 968.6l-15.26-4.97v-2.1l15.26-4.96zm-12.03-6.02l10.04 3.26v-6.52z" fill="#494949"/><path d="M925.08 1027.64h-62.5v-65.06h-62.5" stroke="#494949" stroke-width="2" fill="none"/><path d="M925.08 1027.64l.07 1h-.07v-2h.1zM814.34 967.2l-14.26-4.62 14.26-4.64z" fill="#494949"/><path d="M815.34 968.6l-15.26-4.97v-2.1l15.26-4.96zm-12.03-6.02l10.04 3.26v-6.52z" fill="#494949"/><path d="M906.08 757.08h34v64h63.08" stroke="#494949" stroke-width="2" fill="none"/><path d="M906.08 758.08h-2l2-1-2-1h2zM1003.16 821.08l-14.27 4.63v-9.26z" fill="#494949"/><path d="M1005.2 820.7l-.07.8-17.24 5.6v-12.03zm-15.3 3.64l10.02-3.26-10.03-3.26z" fill="#494949"/><use xlink:href="#x" transform="matrix(1,0,0,1,948.0782573206816,767.1362197593791) translate(0 8.88888888888889)"/><use xlink:href="#y" transform="matrix(1,0,0,1,948.0782573206816,767.1362197593791) translate(0 22.22222222222222)"/><path d="M1253.08 817.08v85" stroke="#494949" stroke-width="2" fill="none"/><path d="M1253.08 817.08h-1v-.6zm1 0h-1l1-.6zM1253.08 902.08l-4.64-14.27h9.27z" fill="#494949"/><path d="M1253.98 902.53l-.9-.45-.9.45-5.1-15.72h12zm-4.16-13.72l3.26 10.04 3.26-10.03z" fill="#494949"/><path d="M399.08 93.08h141" stroke="#494949" stroke-width="2" fill="none"/><path d="M399.08 94.08h-1.84l1.84-1-1.84-1h1.84zM540.08 93.08L525.8 97.7v-9.26z" fill="#494949"/><path d="M541.3 92.42l-1.22.66 1.2.66-16.47 5.35V87.06zm-14.5 3.92l10.04-3.26-10.03-3.26z" fill="#494949"/><use xlink:href="#z" transform="matrix(1,0,0,1,447.33126851912965,97.07825732068156) translate(0 14.4)"/><path d="M1085.08 33.08l80 60-80 60-80-60z" stroke="#494949" stroke-width="2" fill="#fff"/><use xlink:href="#A" transform="matrix(1,0,0,1,1010.0782573206816,38.07825732068156) translate(22.125 58.6)"/><path d="M650.08 33.08l110 60-110 60-110-60z" stroke="#494949" stroke-width="2" fill="#fff"/><use xlink:href="#B" transform="matrix(1,0,0,1,545.0782573206816,38.07825732068156) translate(26.700000000000017 58.6)"/><path d="M289.08 33.08l110 60-110 60-110-60z" stroke="#494949" stroke-width="2" fill="#fff"/><use xlink:href="#B" transform="matrix(1,0,0,1,184.0782573206816,38.07825732068156) translate(26.700000000000017 58.6)"/><path d="M758.54 93.08h246.54M758.54 93.08h-3" stroke="#494949" stroke-width="2" fill="none"/><path d="M1005.08 93.08L990.8 97.7v-9.26z" fill="#494949"/><path d="M1006.06 92.34l-.98.74.98.73-16.25 5.3V87.06zm-14.25 4l10.04-3.26-10.03-3.26z" fill="#494949"/><use xlink:href="#z" transform="matrix(1,0,0,1,867.1288683402523,97.07825732068156) translate(0 14.4)"/><path d="M1085.08 151.94v59.57H210.2v59.58M1085.08 151.94v-3" stroke="#494949" stroke-width="2" fill="none"/><path d="M210.2 271.08l-4.63-14.27h9.27z" fill="#494949"/><path d="M211.15 271.4l-.95-.32-.94.33-5.07-15.6h12zm-4.2-13.6l3.25 10.04 3.26-10.03z" fill="#494949"/><use xlink:href="#n" transform="matrix(1,0,0,1,218.20325732068162,230.77615831518037) translate(0 14.4)"/><path d="M289.08 152.16v40.92h-150v-100h40M289.08 152.16v-3" stroke="#494949" stroke-width="2" fill="none"/><path d="M179.08 93.08L164.8 97.7v-9.26z" fill="#494949"/><path d="M180.3 92.42l-1.22.66 1.2.66-16.47 5.35V87.06zm-14.5 3.92l10.04-3.26-10.03-3.26z" fill="#494949"/><use xlink:href="#n" transform="matrix(1,0,0,1,108.12825732068157,164.23666048516756) translate(0 14.4)"/><path d="M1168.58 478.77v-267.7h-83.5v-58" stroke="#494949" stroke-width="2" fill="none"/><path d="M1168.58 478.77l-4.64-14.27h9.27z" fill="#494949"/><path d="M1169.63 478.77h-2.1l-4.96-15.27h12.02zm-4.3-13.27l3.25 10.03 3.26-10.03zM1085.08 153.08h-1v-.75zm1 0h-1l1-.75z" fill="#494949"/><use xlink:href="#z" transform="matrix(1,0,0,1,1176.5782573206816,230.7761583151803) translate(0 14.4)"/><path d="M220.08 1171.08h900.26v108.52H220.08z" stroke="#494949" stroke-width="2" fill="#fff"/><use xlink:href="#C" transform="matrix(1,0,0,1,225.07825732068147,1176.0782573206816) translate(238.325 53.1)"/><use xlink:href="#D" transform="matrix(1,0,0,1,225.07825732068147,1176.0782573206816) translate(332.225 53.1)"/><use xlink:href="#E" transform="matrix(1,0,0,1,225.07825732068147,1176.0782573206816) translate(395.125 53.1)"/><use xlink:href="#F" transform="matrix(1,0,0,1,225.07825732068147,1176.0782573206816) translate(475.025 53.1)"/><use xlink:href="#G" transform="matrix(1,0,0,1,225.07825732068147,1176.0782573206816) translate(545.875 53.1)"/><path d="M670.08 1000.08v85.5h.13v85.5" stroke="#494949" stroke-width="2" fill="none"/><path d="M670.2 1171.08l-4.62-14.27h9.27z" fill="#494949"/><path d="M671.26 1171.08h-2.1l-4.96-15.27h12.02zm-4.3-13.27l3.25 10.04 3.27-10.03z" fill="#494949"/><path d="M906.08 757.08h98.03" stroke="#494949" stroke-width="2" fill="none"/><path d="M906.08 758.08h-2l2-1-2-1h2zM1004.1 757.08l-14.25 4.63v-9.26z" fill="#494949"/><path d="M1005.18 756.37l-.1 1.16.02.28-16.25 5.3v-12.03zm-14.33 3.97l10.03-3.26-10.03-3.26z" fill="#494949"/><path d="M290.8 730.78c17.23 0 31.2 11.7 31.2 26.1 0 14.43-13.97 26.12-31.2 26.12h-93.6c-17.24 0-31.2-11.7-31.2-26.1 0-14.43 13.96-26.12 31.2-26.12z" stroke="#494949" stroke-width="2" fill="#fff"/><g><use xlink:href="#H" transform="matrix(1,0,0,1,170.9903198653487,735.7758463878417) translate(14.474999999999994 25.1)"/></g><path d="M322 756.9h38.45v.18h38.46" stroke="#494949" stroke-width="2" fill="none"/><path d="M322 757.9h-.08l.08-1-.07-1h.07zM398.9 757.08l-14.26 4.63v-9.26z" fill="#494949"/><path d="M399.95 756.36l-1.04.72 1.05.7-16.3 5.3v-12zm-14.3 3.98l10.02-3.26-10.03-3.26z" fill="#494949"/><g><use xlink:href="#I" transform="matrix(1,0,0,1,340.4927299863597,761.0760476328422) translate(0 14.4)"/></g><defs><path fill="#494949" d="M233-177c-1 41-23 64-60 70L243 0h-38l-65-103H63V0H30v-248c88 3 205-21 203 71zM63-129c60-2 137 13 137-47 0-61-80-42-137-45v92" id="J"/><path fill="#494949" d="M100-194c62-1 85 37 85 99 1 63-27 99-86 99S16-35 15-95c0-66 28-99 85-99zM99-20c44 1 53-31 53-75 0-43-8-75-51-75s-53 32-53 75 10 74 51 75" id="K"/><path fill="#494949" d="M59-47c-2 24 18 29 38 22v24C64 9 27 4 27-40v-127H5v-23h24l9-43h21v43h35v23H59v120" id="L"/><path fill="#494949" d="M212-179c-10-28-35-45-73-45-59 0-87 40-87 99 0 60 29 101 89 101 43 0 62-24 78-52l27 14C228-24 195 4 139 4 59 4 22-46 18-125c-6-104 99-153 187-111 19 9 31 26 39 46" id="M"/><path fill="#494949" d="M117-194c89-4 53 116 60 194h-32v-121c0-31-8-49-39-48C34-167 62-67 57 0H25l-1-190h30c1 10-1 24 2 32 11-22 29-35 61-36" id="N"/><path fill="#494949" d="M114-163C36-179 61-72 57 0H25l-1-190h30c1 12-1 29 2 39 6-27 23-49 58-41v29" id="O"/><path fill="#494949" d="M24 0v-261h32V0H24" id="P"/><path fill="#494949" d="M33 0v-38h34V0H33" id="Q"/><path fill="#494949" d="M135-143c-3-34-86-38-87 0 15 53 115 12 119 90S17 21 10-45l28-5c4 36 97 45 98 0-10-56-113-15-118-90-4-57 82-63 122-42 12 7 21 19 24 35" id="R"/><path fill="#494949" d="M100-194c63 0 86 42 84 106H49c0 40 14 67 53 68 26 1 43-12 49-29l28 8c-11 28-37 45-77 45C44 4 14-33 15-96c1-61 26-98 85-98zm52 81c6-60-76-77-97-28-3 7-6 17-6 28h103" id="S"/><path fill="#494949" d="M87 75C49 33 22-17 22-94c0-76 28-126 65-167h31c-38 41-64 92-64 168S80 34 118 75H87" id="T"/><path fill="#494949" d="M33-261c38 41 65 92 65 168S71 34 33 75H2C39 34 66-17 66-93S39-220 2-261h31" id="U"/><g id="a"><use transform="matrix(0.05,0,0,0.05,0,0)" xlink:href="#J"/><use transform="matrix(0.05,0,0,0.05,12.950000000000001,0)" xlink:href="#K"/><use transform="matrix(0.05,0,0,0.05,22.950000000000003,0)" xlink:href="#K"/><use transform="matrix(0.05,0,0,0.05,32.95,0)" xlink:href="#L"/><use transform="matrix(0.05,0,0,0.05,37.95,0)" xlink:href="#M"/><use transform="matrix(0.05,0,0,0.05,50.900000000000006,0)" xlink:href="#K"/><use transform="matrix(0.05,0,0,0.05,60.900000000000006,0)" xlink:href="#N"/><use transform="matrix(0.05,0,0,0.05,70.9,0)" xlink:href="#L"/><use transform="matrix(0.05,0,0,0.05,75.9,0)" xlink:href="#O"/><use transform="matrix(0.05,0,0,0.05,81.85000000000001,0)" xlink:href="#K"/><use transform="matrix(0.05,0,0,0.05,91.85000000000001,0)" xlink:href="#P"/><use transform="matrix(0.05,0,0,0.05,95.80000000000001,0)" xlink:href="#Q"/><use transform="matrix(0.05,0,0,0.05,100.80000000000001,0)" xlink:href="#R"/><use transform="matrix(0.05,0,0,0.05,109.80000000000001,0)" xlink:href="#S"/><use transform="matrix(0.05,0,0,0.05,119.80000000000001,0)" xlink:href="#L"/><use transform="matrix(0.05,0,0,0.05,124.80000000000001,0)" xlink:href="#J"/><use transform="matrix(0.05,0,0,0.05,137.75,0)" xlink:href="#K"/><use transform="matrix(0.05,0,0,0.05,147.75,0)" xlink:href="#K"/><use transform="matrix(0.05,0,0,0.05,157.75,0)" xlink:href="#L"/><use transform="matrix(0.05,0,0,0.05,162.75,0)" xlink:href="#T"/><use transform="matrix(0.05,0,0,0.05,168.7,0)" xlink:href="#U"/></g><path fill="#494949" d="M24-231v-30h32v30H24zM24 0v-190h32V0H24" id="V"/><path fill="#494949" d="M30-248c87 1 191-15 191 75 0 78-77 80-158 76V0H30v-248zm33 125c57 0 124 11 124-50 0-59-68-47-124-48v98" id="W"/><path fill="#494949" d="M96-169c-40 0-48 33-48 73s9 75 48 75c24 0 41-14 43-38l32 2c-6 37-31 61-74 61-59 0-76-41-82-99-10-93 101-131 147-64 4 7 5 14 7 22l-32 3c-4-21-16-35-41-35" id="X"/><path fill="#494949" d="M177-190C167-65 218 103 67 71c-23-6-38-20-44-43l32-5c15 47 100 32 89-28v-30C133-14 115 1 83 1 29 1 15-40 15-95c0-56 16-97 71-98 29-1 48 16 59 35 1-10 0-23 2-32h30zM94-22c36 0 50-32 50-73 0-42-14-75-50-75-39 0-46 34-46 75s6 73 46 73" id="Y"/><g id="b"><use transform="matrix(0.05,0,0,0.05,0,0)" xlink:href="#V"/><use transform="matrix(0.05,0,0,0.05,3.95,0)" xlink:href="#R"/><use transform="matrix(0.05,0,0,0.05,12.949999999999998,0)" xlink:href="#W"/><use transform="matrix(0.05,0,0,0.05,24.95,0)" xlink:href="#O"/><use transform="matrix(0.05,0,0,0.05,30.899999999999995,0)" xlink:href="#K"/><use transform="matrix(0.05,0,0,0.05,40.9,0)" xlink:href="#X"/><use transform="matrix(0.05,0,0,0.05,49.9,0)" xlink:href="#S"/><use transform="matrix(0.05,0,0,0.05,59.900000000000006,0)" xlink:href="#R"/><use transform="matrix(0.05,0,0,0.05,68.9,0)" xlink:href="#R"/><use transform="matrix(0.05,0,0,0.05,77.9,0)" xlink:href="#V"/><use transform="matrix(0.05,0,0,0.05,81.85000000000001,0)" xlink:href="#N"/><use transform="matrix(0.05,0,0,0.05,91.85000000000001,0)" xlink:href="#Y"/><use transform="matrix(0.05,0,0,0.05,101.85000000000001,0)" xlink:href="#M"/><use transform="matrix(0.05,0,0,0.05,114.80000000000001,0)" xlink:href="#S"/><use transform="matrix(0.05,0,0,0.05,124.80000000000001,0)" xlink:href="#N"/><use transform="matrix(0.05,0,0,0.05,134.8,0)" xlink:href="#L"/><use transform="matrix(0.05,0,0,0.05,139.8,0)" xlink:href="#O"/><use transform="matrix(0.05,0,0,0.05,145.75,0)" xlink:href="#S"/><use transform="matrix(0.05,0,0,0.05,155.75,0)" xlink:href="#T"/><use transform="matrix(0.05,0,0,0.05,161.7,0)" xlink:href="#U"/></g><path fill="#494949" d="M27 0v-27h64v-190l-56 39v-29l58-41h29v221h61V0H27" id="Z"/><g id="c"><use transform="matrix(0.05,0,0,0.05,0,0)" xlink:href="#Z"/><use transform="matrix(0.05,0,0,0.05,10,0)" xlink:href="#Q"/></g><path fill="#494949" d="M160-131c35 5 61 23 61 61C221 17 115-2 30 0v-248c76 3 177-17 177 60 0 33-19 50-47 57zm-97-11c50-1 110 9 110-42 0-47-63-36-110-37v79zm0 115c55-2 124 14 124-45 0-56-70-42-124-44v89" id="aa"/><path fill="#494949" d="M141-36C126-15 110 5 73 4 37 3 15-17 15-53c-1-64 63-63 125-63 3-35-9-54-41-54-24 1-41 7-42 31l-33-3c5-37 33-52 76-52 45 0 72 20 72 64v82c-1 20 7 32 28 27v20c-31 9-61-2-59-35zM48-53c0 20 12 33 32 33 41-3 63-29 60-74-43 2-92-5-92 41" id="ab"/><path fill="#494949" d="M127-220V0H93v-220H8v-28h204v28h-85" id="ac"/><path fill="#494949" d="M210-169c-67 3-38 105-44 169h-31v-121c0-29-5-50-35-48C34-165 62-65 56 0H25l-1-190h30c1 10-1 24 2 32 10-44 99-50 107 0 11-21 27-35 58-36 85-2 47 119 55 194h-31v-121c0-29-5-49-35-48" id="ad"/><g id="d"><use transform="matrix(0.05,0,0,0.05,0,0)" xlink:href="#aa"/><use transform="matrix(0.05,0,0,0.05,12,0)" xlink:href="#S"/><use transform="matrix(0.05,0,0,0.05,22,0)" xlink:href="#ab"/><use transform="matrix(0.05,0,0,0.05,32,0)" xlink:href="#X"/><use transform="matrix(0.05,0,0,0.05,41,0)" xlink:href="#K"/><use transform="matrix(0.05,0,0,0.05,51,0)" xlink:href="#N"/><use transform="matrix(0.05,0,0,0.05,61,0)" xlink:href="#ac"/><use transform="matrix(0.05,0,0,0.05,71.3,0)" xlink:href="#V"/><use transform="matrix(0.05,0,0,0.05,75.25,0)" xlink:href="#ad"/><use transform="matrix(0.05,0,0,0.05,90.2,0)" xlink:href="#S"/><use transform="matrix(0.05,0,0,0.05,100.2,0)" xlink:href="#O"/><use transform="matrix(0.05,0,0,0.05,106.15,0)" xlink:href="#T"/><use transform="matrix(0.05,0,0,0.05,112.10000000000001,0)" xlink:href="#U"/></g><path fill="#494949" d="M101-251c82-7 93 87 43 132L82-64C71-53 59-42 53-27h129V0H18c2-99 128-94 128-182 0-28-16-43-45-43s-46 15-49 41l-32-3c6-41 34-60 81-64" id="ae"/><g id="e"><use transform="matrix(0.05,0,0,0.05,0,0)" xlink:href="#ae"/><use transform="matrix(0.05,0,0,0.05,10,0)" xlink:href="#Q"/></g><g id="f"><use transform="matrix(0.05,0,0,0.05,0,0)" xlink:href="#M"/><use transform="matrix(0.05,0,0,0.05,12.950000000000001,0)" xlink:href="#ac"/><use transform="matrix(0.05,0,0,0.05,23.900000000000002,0)" xlink:href="#W"/><use transform="matrix(0.05,0,0,0.05,35.900000000000006,0)" xlink:href="#M"/><use transform="matrix(0.05,0,0,0.05,48.85000000000001,0)" xlink:href="#K"/><use transform="matrix(0.05,0,0,0.05,58.85,0)" xlink:href="#P"/><use transform="matrix(0.05,0,0,0.05,62.80000000000001,0)" xlink:href="#P"/><use transform="matrix(0.05,0,0,0.05,66.75000000000001,0)" xlink:href="#S"/><use transform="matrix(0.05,0,0,0.05,76.75000000000001,0)" xlink:href="#X"/><use transform="matrix(0.05,0,0,0.05,85.75000000000001,0)" xlink:href="#L"/><use transform="matrix(0.05,0,0,0.05,90.75000000000001,0)" xlink:href="#V"/><use transform="matrix(0.05,0,0,0.05,94.70000000000002,0)" xlink:href="#K"/><use transform="matrix(0.05,0,0,0.05,104.7,0)" xlink:href="#N"/><use transform="matrix(0.05,0,0,0.05,114.7,0)" xlink:href="#ac"/><use transform="matrix(0.05,0,0,0.05,125,0)" xlink:href="#V"/><use transform="matrix(0.05,0,0,0.05,128.95000000000002,0)" xlink:href="#ad"/><use transform="matrix(0.05,0,0,0.05,143.9,0)" xlink:href="#S"/><use transform="matrix(0.05,0,0,0.05,153.9,0)" xlink:href="#O"/><use transform="matrix(0.05,0,0,0.05,159.85,0)" xlink:href="#T"/><use transform="matrix(0.05,0,0,0.05,165.79999999999998,0)" xlink:href="#U"/></g><g id="g"><use transform="matrix(0.05,0,0,0.05,0,0)" xlink:href="#M"/><use transform="matrix(0.05,0,0,0.05,12.950000000000001,0)" xlink:href="#ac"/><use transform="matrix(0.05,0,0,0.05,23.900000000000002,0)" xlink:href="#W"/><use transform="matrix(0.05,0,0,0.05,35.900000000000006,0)" xlink:href="#M"/><use transform="matrix(0.05,0,0,0.05,48.85000000000001,0)" xlink:href="#K"/><use transform="matrix(0.05,0,0,0.05,58.85,0)" xlink:href="#P"/><use transform="matrix(0.05,0,0,0.05,62.80000000000001,0)" xlink:href="#P"/><use transform="matrix(0.05,0,0,0.05,66.75000000000001,0)" xlink:href="#S"/><use transform="matrix(0.05,0,0,0.05,76.75000000000001,0)" xlink:href="#X"/><use transform="matrix(0.05,0,0,0.05,85.75000000000001,0)" xlink:href="#L"/><use transform="matrix(0.05,0,0,0.05,90.75000000000001,0)" xlink:href="#V"/><use transform="matrix(0.05,0,0,0.05,94.70000000000002,0)" xlink:href="#K"/><use transform="matrix(0.05,0,0,0.05,104.7,0)" xlink:href="#N"/><use transform="matrix(0.05,0,0,0.05,114.7,0)" xlink:href="#ac"/><use transform="matrix(0.05,0,0,0.05,125,0)" xlink:href="#V"/><use transform="matrix(0.05,0,0,0.05,128.95000000000002,0)" xlink:href="#ad"/><use transform="matrix(0.05,0,0,0.05,143.9,0)" xlink:href="#S"/><use transform="matrix(0.05,0,0,0.05,153.9,0)" xlink:href="#O"/><use transform="matrix(0.05,0,0,0.05,159.85,0)" xlink:href="#T"/><use transform="matrix(0.05,0,0,0.05,165.79999999999998,0)" xlink:href="#U"/></g><path fill="#494949" d="M115-194c53 0 69 39 70 98 0 66-23 100-70 100C84 3 66-7 56-30L54 0H23l1-261h32v101c10-23 28-34 59-34zm-8 174c40 0 45-34 45-75 0-40-5-75-45-74-42 0-51 32-51 76 0 43 10 73 51 73" id="af"/><path fill="#494949" d="M185-189c-5-48-123-54-124 2 14 75 158 14 163 119 3 78-121 87-175 55-17-10-28-26-33-46l33-7c5 56 141 63 141-1 0-78-155-14-162-118-5-82 145-84 179-34 5 7 8 16 11 25" id="ag"/><path fill="#494949" d="M85-194c31 0 48 13 60 33l-1-100h32l1 261h-30c-2-10 0-23-3-31C134-8 116 4 85 4 32 4 16-35 15-94c0-66 23-100 70-100zm9 24c-40 0-46 34-46 75 0 40 6 74 45 74 42 0 51-32 51-76 0-42-9-74-50-73" id="ah"/><path fill="#494949" d="M33 0v-248h34V0H33" id="ai"/><g id="h"><use transform="matrix(0.05,0,0,0.05,0,0)" xlink:href="#W"/><use transform="matrix(0.05,0,0,0.05,12,0)" xlink:href="#O"/><use transform="matrix(0.05,0,0,0.05,17.95,0)" xlink:href="#S"/><use transform="matrix(0.05,0,0,0.05,27.950000000000003,0)" xlink:href="#ab"/><use transform="matrix(0.05,0,0,0.05,37.95,0)" xlink:href="#ad"/><use transform="matrix(0.05,0,0,0.05,52.900000000000006,0)" xlink:href="#af"/><use transform="matrix(0.05,0,0,0.05,62.900000000000006,0)" xlink:href="#P"/><use transform="matrix(0.05,0,0,0.05,66.85000000000001,0)" xlink:href="#S"/><use transform="matrix(0.05,0,0,0.05,76.85000000000001,0)" xlink:href="#ag"/><use transform="matrix(0.05,0,0,0.05,88.85000000000001,0)" xlink:href="#S"/><use transform="matrix(0.05,0,0,0.05,98.85000000000001,0)" xlink:href="#N"/><use transform="matrix(0.05,0,0,0.05,108.85000000000001,0)" xlink:href="#ah"/><use transform="matrix(0.05,0,0,0.05,118.85000000000001,0)" xlink:href="#V"/><use transform="matrix(0.05,0,0,0.05,122.80000000000001,0)" xlink:href="#N"/><use transform="matrix(0.05,0,0,0.05,132.8,0)" xlink:href="#Y"/><use transform="matrix(0.05,0,0,0.05,142.8,0)" xlink:href="#ac"/><use transform="matrix(0.05,0,0,0.05,153.75,0)" xlink:href="#ai"/><use transform="matrix(0.05,0,0,0.05,158.75,0)" xlink:href="#ad"/><use transform="matrix(0.05,0,0,0.05,173.7,0)" xlink:href="#S"/><use transform="matrix(0.05,0,0,0.05,183.7,0)" xlink:href="#O"/><use transform="matrix(0.05,0,0,0.05,189.64999999999998,0)" xlink:href="#T"/><use transform="matrix(0.05,0,0,0.05,195.59999999999997,0)" xlink:href="#U"/></g><path fill="#494949" d="M190 0L58-211 59 0H30v-248h39L202-35l-2-213h31V0h-41" id="aj"/><g id="i"><use transform="matrix(0.05,0,0,0.05,0,0)" xlink:href="#aj"/><use transform="matrix(0.05,0,0,0.05,12.950000000000001,0)" xlink:href="#K"/></g><path fill="#494949" d="M137-103V0h-34v-103L8-248h37l75 118 75-118h37" id="ak"/><g id="j"><use transform="matrix(0.05,0,0,0.05,0,0)" xlink:href="#ak"/><use transform="matrix(0.05,0,0,0.05,10.35,0)" xlink:href="#S"/><use transform="matrix(0.05,0,0,0.05,20.35,0)" xlink:href="#R"/></g><path fill="#494949" d="M84 4C-5 8 30-112 23-190h32v120c0 31 7 50 39 49 72-2 45-101 50-169h31l1 190h-30c-1-10 1-25-2-33-11 22-28 36-60 37" id="al"/><path fill="#494949" d="M179-190L93 31C79 59 56 82 12 73V49c39 6 53-20 64-50L1-190h34L92-34l54-156h33" id="am"/><g id="k"><use transform="matrix(0.05,0,0,0.05,0,0)" xlink:href="#R"/><use transform="matrix(0.05,0,0,0.05,9,0)" xlink:href="#S"/><use transform="matrix(0.05,0,0,0.05,19,0)" xlink:href="#N"/><use transform="matrix(0.05,0,0,0.05,29,0)" xlink:href="#ah"/><use transform="matrix(0.05,0,0,0.05,39,0)" xlink:href="#aa"/><use transform="matrix(0.05,0,0,0.05,51,0)" xlink:href="#al"/><use transform="matrix(0.05,0,0,0.05,61,0)" xlink:href="#R"/><use transform="matrix(0.05,0,0,0.05,70,0)" xlink:href="#am"/><use transform="matrix(0.05,0,0,0.05,79,0)" xlink:href="#aa"/><use transform="matrix(0.05,0,0,0.05,91,0)" xlink:href="#S"/><use transform="matrix(0.05,0,0,0.05,101,0)" xlink:href="#ab"/><use transform="matrix(0.05,0,0,0.05,111,0)" xlink:href="#X"/><use transform="matrix(0.05,0,0,0.05,120,0)" xlink:href="#K"/><use transform="matrix(0.05,0,0,0.05,130,0)" xlink:href="#N"/></g><path fill="#494949" d="M30 0v-248h187v28H63v79h144v27H63v87h162V0H30" id="an"/><path fill="#494949" d="M195 0l-74-108L45 0H8l94-129-87-119h37l69 98 67-98h37l-84 118L233 0h-38" id="ao"/><path fill="#494949" d="M68-38c1 34 0 65-14 84H32c9-13 17-26 17-46H33v-38h35" id="ap"/><g id="l"><use transform="matrix(0.05,0,0,0.05,0,0)" xlink:href="#R"/><use transform="matrix(0.05,0,0,0.05,9,0)" xlink:href="#S"/><use transform="matrix(0.05,0,0,0.05,19,0)" xlink:href="#N"/><use transform="matrix(0.05,0,0,0.05,29,0)" xlink:href="#ah"/><use transform="matrix(0.05,0,0,0.05,39,0)" xlink:href="#aa"/><use transform="matrix(0.05,0,0,0.05,51,0)" xlink:href="#S"/><use transform="matrix(0.05,0,0,0.05,61,0)" xlink:href="#ab"/><use transform="matrix(0.05,0,0,0.05,71,0)" xlink:href="#X"/><use transform="matrix(0.05,0,0,0.05,80,0)" xlink:href="#K"/><use transform="matrix(0.05,0,0,0.05,90,0)" xlink:href="#N"/><use transform="matrix(0.05,0,0,0.05,100,0)" xlink:href="#T"/><use transform="matrix(0.05,0,0,0.05,105.95,0)" xlink:href="#an"/><use transform="matrix(0.05,0,0,0.05,117.95,0)" xlink:href="#ac"/><use transform="matrix(0.05,0,0,0.05,128.9,0)" xlink:href="#ao"/><use transform="matrix(0.05,0,0,0.05,140.9,0)" xlink:href="#ap"/></g><path fill="#494949" d="M30-248c118-7 216 8 213 122C240-48 200 0 122 0H30v-248zM63-27c89 8 146-16 146-99s-60-101-146-95v194" id="aq"/><g id="m"><use transform="matrix(0.05,0,0,0.05,0,0)" xlink:href="#ai"/><use transform="matrix(0.05,0,0,0.05,5,0)" xlink:href="#aq"/><use transform="matrix(0.05,0,0,0.05,17.950000000000003,0)" xlink:href="#U"/></g><g id="n"><use transform="matrix(0.05,0,0,0.05,0,0)" xlink:href="#aj"/><use transform="matrix(0.05,0,0,0.05,12.950000000000001,0)" xlink:href="#K"/></g><path fill="#19967d" d="M30-248c87 1 191-15 191 75 0 78-77 80-158 76V0H30v-248zm33 125c57 0 124 11 124-50 0-59-68-47-124-48v98" id="ar"/><path fill="#19967d" d="M212-179c-10-28-35-45-73-45-59 0-87 40-87 99 0 60 29 101 89 101 43 0 62-24 78-52l27 14C228-24 195 4 139 4 59 4 22-46 18-125c-6-104 99-153 187-111 19 9 31 26 39 46" id="as"/><path fill="#19967d" d="M27 0v-27h64v-190l-56 39v-29l58-41h29v221h61V0H27" id="at"/><g id="o"><use transform="matrix(0.05,0,0,0.05,0,0)" xlink:href="#ar"/><use transform="matrix(0.05,0,0,0.05,12,0)" xlink:href="#as"/><use transform="matrix(0.05,0,0,0.05,24.950000000000003,0)" xlink:href="#at"/></g><path fill="#19967d" d="M101-251c82-7 93 87 43 132L82-64C71-53 59-42 53-27h129V0H18c2-99 128-94 128-182 0-28-16-43-45-43s-46 15-49 41l-32-3c6-41 34-60 81-64" id="au"/><g id="p"><use transform="matrix(0.05,0,0,0.05,0,0)" xlink:href="#ar"/><use transform="matrix(0.05,0,0,0.05,12,0)" xlink:href="#as"/><use transform="matrix(0.05,0,0,0.05,24.950000000000003,0)" xlink:href="#au"/></g><path fill="#19967d" d="M126-127c33 6 58 20 58 59 0 88-139 92-164 29-3-8-5-16-6-25l32-3c6 27 21 44 54 44 32 0 52-15 52-46 0-38-36-46-79-43v-28c39 1 72-4 72-42 0-27-17-43-46-43-28 0-47 15-49 41l-32-3c6-42 35-63 81-64 48-1 79 21 79 65 0 36-21 52-52 59" id="av"/><g id="q"><use transform="matrix(0.05,0,0,0.05,0,0)" xlink:href="#ar"/><use transform="matrix(0.05,0,0,0.05,12,0)" xlink:href="#as"/><use transform="matrix(0.05,0,0,0.05,24.950000000000003,0)" xlink:href="#av"/></g><path fill="#c92d39" d="M185-189c-5-48-123-54-124 2 14 75 158 14 163 119 3 78-121 87-175 55-17-10-28-26-33-46l33-7c5 56 141 63 141-1 0-78-155-14-162-118-5-82 145-84 179-34 5 7 8 16 11 25" id="aw"/><path fill="#c92d39" d="M190 0L58-211 59 0H30v-248h39L202-35l-2-213h31V0h-41" id="ax"/><path fill="#c92d39" d="M126-127c33 6 58 20 58 59 0 88-139 92-164 29-3-8-5-16-6-25l32-3c6 27 21 44 54 44 32 0 52-15 52-46 0-38-36-46-79-43v-28c39 1 72-4 72-42 0-27-17-43-46-43-28 0-47 15-49 41l-32-3c6-42 35-63 81-64 48-1 79 21 79 65 0 36-21 52-52 59" id="ay"/><g id="r"><use transform="matrix(0.05,0,0,0.05,0,0)" xlink:href="#aw"/><use transform="matrix(0.05,0,0,0.05,12,0)" xlink:href="#ax"/><use transform="matrix(0.05,0,0,0.05,24.950000000000003,0)" xlink:href="#ay"/></g><path fill="#c92d39" d="M101-251c82-7 93 87 43 132L82-64C71-53 59-42 53-27h129V0H18c2-99 128-94 128-182 0-28-16-43-45-43s-46 15-49 41l-32-3c6-41 34-60 81-64" id="az"/><g id="s"><use transform="matrix(0.05,0,0,0.05,0,0)" xlink:href="#aw"/><use transform="matrix(0.05,0,0,0.05,12,0)" xlink:href="#ax"/><use transform="matrix(0.05,0,0,0.05,24.950000000000003,0)" xlink:href="#az"/></g><path fill="#c92d39" d="M27 0v-27h64v-190l-56 39v-29l58-41h29v221h61V0H27" id="aA"/><g id="t"><use transform="matrix(0.05,0,0,0.05,0,0)" xlink:href="#aw"/><use transform="matrix(0.05,0,0,0.05,12,0)" xlink:href="#ax"/><use transform="matrix(0.05,0,0,0.05,24.950000000000003,0)" xlink:href="#aA"/></g><path fill="#494949" d="M106-169C34-169 62-67 57 0H25v-261h32l-1 103c12-21 28-36 61-36 89 0 53 116 60 194h-32v-121c2-32-8-49-39-48" id="aB"/><path fill="#494949" d="M115-194c55 1 70 41 70 98S169 2 115 4C84 4 66-9 55-30l1 105H24l-1-265h31l2 30c10-21 28-34 59-34zm-8 174c40 0 45-34 45-75s-6-73-45-74c-42 0-51 32-51 76 0 43 10 73 51 73" id="aC"/><g id="u"><use transform="matrix(0.05,0,0,0.05,0,0)" xlink:href="#R"/><use transform="matrix(0.05,0,0,0.05,9,0)" xlink:href="#S"/><use transform="matrix(0.05,0,0,0.05,19,0)" xlink:href="#N"/><use transform="matrix(0.05,0,0,0.05,29,0)" xlink:href="#ah"/><use transform="matrix(0.05,0,0,0.05,39,0)" xlink:href="#aa"/><use transform="matrix(0.05,0,0,0.05,51,0)" xlink:href="#al"/><use transform="matrix(0.05,0,0,0.05,61,0)" xlink:href="#R"/><use transform="matrix(0.05,0,0,0.05,70,0)" xlink:href="#am"/><use transform="matrix(0.05,0,0,0.05,79,0)" xlink:href="#aa"/><use transform="matrix(0.05,0,0,0.05,91,0)" xlink:href="#S"/><use transform="matrix(0.05,0,0,0.05,101,0)" xlink:href="#ab"/><use transform="matrix(0.05,0,0,0.05,111,0)" xlink:href="#X"/><use transform="matrix(0.05,0,0,0.05,120,0)" xlink:href="#K"/><use transform="matrix(0.05,0,0,0.05,130,0)" xlink:href="#N"/><use transform="matrix(0.05,0,0,0.05,140,0)" xlink:href="#ae"/><use transform="matrix(0.05,0,0,0.05,150,0)" xlink:href="#aB"/><use transform="matrix(0.05,0,0,0.05,160,0)" xlink:href="#K"/><use transform="matrix(0.05,0,0,0.05,170,0)" xlink:href="#aC"/></g><path fill="#494949" d="M30 0v-248h33v221h125V0H30" id="aD"/><g id="v"><use transform="matrix(0.05,0,0,0.05,0,0)" xlink:href="#al"/><use transform="matrix(0.05,0,0,0.05,10,0)" xlink:href="#aC"/><use transform="matrix(0.05,0,0,0.05,20,0)" xlink:href="#ah"/><use transform="matrix(0.05,0,0,0.05,30,0)" xlink:href="#ab"/><use transform="matrix(0.05,0,0,0.05,40,0)" xlink:href="#L"/><use transform="matrix(0.05,0,0,0.05,45,0)" xlink:href="#S"/><use transform="matrix(0.05,0,0,0.05,55,0)" xlink:href="#W"/><use transform="matrix(0.05,0,0,0.05,67,0)" xlink:href="#O"/><use transform="matrix(0.05,0,0,0.05,72.95,0)" xlink:href="#K"/><use transform="matrix(0.05,0,0,0.05,82.95,0)" xlink:href="#X"/><use transform="matrix(0.05,0,0,0.05,91.95,0)" xlink:href="#S"/><use transform="matrix(0.05,0,0,0.05,101.95,0)" xlink:href="#R"/><use transform="matrix(0.05,0,0,0.05,110.95,0)" xlink:href="#R"/><use transform="matrix(0.05,0,0,0.05,119.95,0)" xlink:href="#V"/><use transform="matrix(0.05,0,0,0.05,123.9,0)" xlink:href="#N"/><use transform="matrix(0.05,0,0,0.05,133.9,0)" xlink:href="#Y"/><use transform="matrix(0.05,0,0,0.05,143.9,0)" xlink:href="#M"/><use transform="matrix(0.05,0,0,0.05,156.85,0)" xlink:href="#S"/><use transform="matrix(0.05,0,0,0.05,166.85,0)" xlink:href="#N"/><use transform="matrix(0.05,0,0,0.05,176.85,0)" xlink:href="#L"/><use transform="matrix(0.05,0,0,0.05,181.85,0)" xlink:href="#O"/><use transform="matrix(0.05,0,0,0.05,187.79999999999998,0)" xlink:href="#S"/><use transform="matrix(0.05,0,0,0.05,197.79999999999998,0)" xlink:href="#aD"/><use transform="matrix(0.05,0,0,0.05,207.79999999999995,0)" xlink:href="#V"/><use transform="matrix(0.05,0,0,0.05,211.74999999999997,0)" xlink:href="#R"/><use transform="matrix(0.05,0,0,0.05,220.74999999999997,0)" xlink:href="#L"/></g><g id="w"><use transform="matrix(0.05,0,0,0.05,0,0)" xlink:href="#T"/><use transform="matrix(0.05,0,0,0.05,5.95,0)" xlink:href="#an"/><use transform="matrix(0.05,0,0,0.05,17.95,0)" xlink:href="#ac"/><use transform="matrix(0.05,0,0,0.05,28.899999999999995,0)" xlink:href="#ao"/><use transform="matrix(0.05,0,0,0.05,40.9,0)" xlink:href="#ap"/></g><path fill="#494949" d="M108 0H70L1-190h34L89-25l56-165h34" id="aE"/><g id="x"><use transform="matrix(0.030864197530864196,0,0,0.030864197530864196,0,0)" xlink:href="#J"/><use transform="matrix(0.030864197530864196,0,0,0.030864197530864196,7.993827160493827,0)" xlink:href="#S"/><use transform="matrix(0.030864197530864196,0,0,0.030864197530864196,14.166666666666666,0)" xlink:href="#X"/><use transform="matrix(0.030864197530864196,0,0,0.030864197530864196,19.72222222222222,0)" xlink:href="#S"/><use transform="matrix(0.030864197530864196,0,0,0.030864197530864196,25.89506172839506,0)" xlink:href="#V"/><use transform="matrix(0.030864197530864196,0,0,0.030864197530864196,28.333333333333332,0)" xlink:href="#aE"/><use transform="matrix(0.030864197530864196,0,0,0.030864197530864196,33.888888888888886,0)" xlink:href="#S"/><use transform="matrix(0.030864197530864196,0,0,0.030864197530864196,40.06172839506173,0)" xlink:href="#ah"/></g><g id="y"><use transform="matrix(0.030864197530864196,0,0,0.030864197530864196,0,0)" xlink:href="#aa"/><use transform="matrix(0.030864197530864196,0,0,0.030864197530864196,7.4074074074074066,0)" xlink:href="#S"/><use transform="matrix(0.030864197530864196,0,0,0.030864197530864196,13.580246913580247,0)" xlink:href="#ab"/><use transform="matrix(0.030864197530864196,0,0,0.030864197530864196,19.753086419753085,0)" xlink:href="#X"/><use transform="matrix(0.030864197530864196,0,0,0.030864197530864196,25.30864197530864,0)" xlink:href="#K"/><use transform="matrix(0.030864197530864196,0,0,0.030864197530864196,31.481481481481477,0)" xlink:href="#N"/></g><g id="z"><use transform="matrix(0.05,0,0,0.05,0,0)" xlink:href="#ak"/><use transform="matrix(0.05,0,0,0.05,10.35,0)" xlink:href="#S"/><use transform="matrix(0.05,0,0,0.05,20.35,0)" xlink:href="#R"/></g><g id="A"><use transform="matrix(0.05,0,0,0.05,0,0)" xlink:href="#V"/><use transform="matrix(0.05,0,0,0.05,3.95,0)" xlink:href="#R"/><use transform="matrix(0.05,0,0,0.05,12.949999999999998,0)" xlink:href="#J"/><use transform="matrix(0.05,0,0,0.05,25.899999999999995,0)" xlink:href="#K"/><use transform="matrix(0.05,0,0,0.05,35.9,0)" xlink:href="#K"/><use transform="matrix(0.05,0,0,0.05,45.9,0)" xlink:href="#L"/><use transform="matrix(0.05,0,0,0.05,50.9,0)" xlink:href="#aj"/><use transform="matrix(0.05,0,0,0.05,63.85,0)" xlink:href="#K"/><use transform="matrix(0.05,0,0,0.05,73.85,0)" xlink:href="#ah"/><use transform="matrix(0.05,0,0,0.05,83.85,0)" xlink:href="#S"/><use transform="matrix(0.05,0,0,0.05,93.85,0)" xlink:href="#T"/><use transform="matrix(0.05,0,0,0.05,99.8,0)" xlink:href="#U"/></g><g id="B"><use transform="matrix(0.05,0,0,0.05,0,0)" xlink:href="#J"/><use transform="matrix(0.05,0,0,0.05,12.950000000000001,0)" xlink:href="#ab"/><use transform="matrix(0.05,0,0,0.05,22.950000000000003,0)" xlink:href="#ah"/><use transform="matrix(0.05,0,0,0.05,32.95,0)" xlink:href="#V"/><use transform="matrix(0.05,0,0,0.05,36.900000000000006,0)" xlink:href="#K"/><use transform="matrix(0.05,0,0,0.05,46.900000000000006,0)" xlink:href="#M"/><use transform="matrix(0.05,0,0,0.05,59.85,0)" xlink:href="#K"/><use transform="matrix(0.05,0,0,0.05,69.85000000000001,0)" xlink:href="#N"/><use transform="matrix(0.05,0,0,0.05,79.85000000000001,0)" xlink:href="#L"/><use transform="matrix(0.05,0,0,0.05,84.85000000000001,0)" xlink:href="#O"/><use transform="matrix(0.05,0,0,0.05,90.80000000000001,0)" xlink:href="#K"/><use transform="matrix(0.05,0,0,0.05,100.80000000000001,0)" xlink:href="#P"/><use transform="matrix(0.05,0,0,0.05,104.75,0)" xlink:href="#Q"/><use transform="matrix(0.05,0,0,0.05,109.75,0)" xlink:href="#R"/><use transform="matrix(0.05,0,0,0.05,118.75,0)" xlink:href="#L"/><use transform="matrix(0.05,0,0,0.05,123.75,0)" xlink:href="#ab"/><use transform="matrix(0.05,0,0,0.05,133.75,0)" xlink:href="#O"/><use transform="matrix(0.05,0,0,0.05,139.7,0)" xlink:href="#L"/><use transform="matrix(0.05,0,0,0.05,144.7,0)" xlink:href="#T"/><use transform="matrix(0.05,0,0,0.05,150.64999999999998,0)" xlink:href="#U"/></g><g id="C"><use transform="matrix(0.05,0,0,0.05,0,0)" xlink:href="#W"/><use transform="matrix(0.05,0,0,0.05,12,0)" xlink:href="#O"/><use transform="matrix(0.05,0,0,0.05,17.95,0)" xlink:href="#K"/><use transform="matrix(0.05,0,0,0.05,27.950000000000003,0)" xlink:href="#X"/><use transform="matrix(0.05,0,0,0.05,36.95,0)" xlink:href="#S"/><use transform="matrix(0.05,0,0,0.05,46.95,0)" xlink:href="#R"/><use transform="matrix(0.05,0,0,0.05,55.95,0)" xlink:href="#R"/><use transform="matrix(0.05,0,0,0.05,64.95,0)" xlink:href="#V"/><use transform="matrix(0.05,0,0,0.05,68.9,0)" xlink:href="#N"/><use transform="matrix(0.05,0,0,0.05,78.9,0)" xlink:href="#Y"/></g><g id="D"><use transform="matrix(0.05,0,0,0.05,0,0)" xlink:href="#M"/><use transform="matrix(0.05,0,0,0.05,12.950000000000001,0)" xlink:href="#S"/><use transform="matrix(0.05,0,0,0.05,22.950000000000003,0)" xlink:href="#N"/><use transform="matrix(0.05,0,0,0.05,32.95,0)" xlink:href="#L"/><use transform="matrix(0.05,0,0,0.05,37.95,0)" xlink:href="#S"/><use transform="matrix(0.05,0,0,0.05,47.95,0)" xlink:href="#O"/><use transform="matrix(0.05,0,0,0.05,52.900000000000006,0)" xlink:href="#ap"/></g><path fill="#494949" d="M-5 72V49h209v23H-5" id="aF"/><g id="E"><use transform="matrix(0.05,0,0,0.05,0,0)" xlink:href="#W"/><use transform="matrix(0.05,0,0,0.05,12,0)" xlink:href="#M"/><use transform="matrix(0.05,0,0,0.05,24.950000000000003,0)" xlink:href="#aF"/><use transform="matrix(0.05,0,0,0.05,34.95,0)" xlink:href="#an"/><use transform="matrix(0.05,0,0,0.05,46.95,0)" xlink:href="#ac"/><use transform="matrix(0.05,0,0,0.05,57.900000000000006,0)" xlink:href="#ao"/><use transform="matrix(0.05,0,0,0.05,69.9,0)" xlink:href="#ap"/></g><g id="F"><use transform="matrix(0.05,0,0,0.05,0,0)" xlink:href="#J"/><use transform="matrix(0.05,0,0,0.05,12.950000000000001,0)" xlink:href="#S"/><use transform="matrix(0.05,0,0,0.05,22.950000000000003,0)" xlink:href="#P"/><use transform="matrix(0.05,0,0,0.05,26.900000000000002,0)" xlink:href="#ab"/><use transform="matrix(0.05,0,0,0.05,36.900000000000006,0)" xlink:href="#am"/><use transform="matrix(0.05,0,0,0.05,45.900000000000006,0)" xlink:href="#S"/><use transform="matrix(0.05,0,0,0.05,55.900000000000006,0)" xlink:href="#O"/><use transform="matrix(0.05,0,0,0.05,60.85,0)" xlink:href="#ap"/></g><g id="G"><use transform="matrix(0.05,0,0,0.05,0,0)" xlink:href="#J"/><use transform="matrix(0.05,0,0,0.05,12.950000000000001,0)" xlink:href="#S"/><use transform="matrix(0.05,0,0,0.05,22.950000000000003,0)" xlink:href="#P"/><use transform="matrix(0.05,0,0,0.05,26.900000000000002,0)" xlink:href="#ab"/><use transform="matrix(0.05,0,0,0.05,36.900000000000006,0)" xlink:href="#am"/><use transform="matrix(0.05,0,0,0.05,45.900000000000006,0)" xlink:href="#S"/><use transform="matrix(0.05,0,0,0.05,55.900000000000006,0)" xlink:href="#O"/><use transform="matrix(0.05,0,0,0.05,61.85,0)" xlink:href="#aF"/><use transform="matrix(0.05,0,0,0.05,71.85000000000001,0)" xlink:href="#an"/><use transform="matrix(0.05,0,0,0.05,83.85000000000001,0)" xlink:href="#ac"/><use transform="matrix(0.05,0,0,0.05,94.80000000000001,0)" xlink:href="#ao"/></g><g id="H"><use transform="matrix(0.05,0,0,0.05,0,0)" xlink:href="#aa"/><use transform="matrix(0.05,0,0,0.05,12,0)" xlink:href="#S"/><use transform="matrix(0.05,0,0,0.05,22,0)" xlink:href="#ab"/><use transform="matrix(0.05,0,0,0.05,32,0)" xlink:href="#X"/><use transform="matrix(0.05,0,0,0.05,41,0)" xlink:href="#K"/><use transform="matrix(0.05,0,0,0.05,51,0)" xlink:href="#N"/><use transform="matrix(0.05,0,0,0.05,61,0)" xlink:href="#ac"/><use transform="matrix(0.05,0,0,0.05,71.3,0)" xlink:href="#V"/><use transform="matrix(0.05,0,0,0.05,75.25,0)" xlink:href="#ad"/><use transform="matrix(0.05,0,0,0.05,90.2,0)" xlink:href="#S"/><use transform="matrix(0.05,0,0,0.05,100.2,0)" xlink:href="#O"/><use transform="matrix(0.05,0,0,0.05,106.15,0)" xlink:href="#T"/><use transform="matrix(0.05,0,0,0.05,112.10000000000001,0)" xlink:href="#U"/></g><path fill="#494949" d="M101-234c-31-9-42 10-38 44h38v23H63V0H32v-167H5v-23h27c-7-52 17-82 69-68v24" id="aG"/><g id="I"><use transform="matrix(0.05,0,0,0.05,0,0)" xlink:href="#Q"/><use transform="matrix(0.05,0,0,0.05,5,0)" xlink:href="#aG"/><use transform="matrix(0.05,0,0,0.05,10,0)" xlink:href="#V"/><use transform="matrix(0.05,0,0,0.05,13.949999999999998,0)" xlink:href="#O"/><use transform="matrix(0.05,0,0,0.05,19.9,0)" xlink:href="#S"/><use transform="matrix(0.05,0,0,0.05,29.899999999999995,0)" xlink:href="#ah"/></g></defs></g></svg>