<svg xmlns="http://www.w3.org/2000/svg" xmlns:xlink="http://www.w3.org/1999/xlink" width="1351.08" height="1748.46"><g transform="translate(0 0)"><path d="M1079.8 232.67h239.33V393.8H1079.8z" stroke="#494949" stroke-width="2" fill="#fff"/><use xlink:href="#a" transform="matrix(1,0,0,1,1094.79012345679,247.6688996438558) translate(0 14.4)"/><use xlink:href="#b" transform="matrix(1,0,0,1,1094.79012345679,247.6688996438558) translate(0 38.160000000000004)"/><use xlink:href="#c" transform="matrix(1,0,0,1,1094.79012345679,247.6688996438558) translate(0 61.92000000000001)"/><use xlink:href="#d" transform="matrix(1,0,0,1,1094.79012345679,247.6688996438558) translate(95.10000000000001 61.92000000000001)"/><use xlink:href="#e" transform="matrix(1,0,0,1,1094.79012345679,247.6688996438558) translate(0 85.68000000000002)"/><use xlink:href="#d" transform="matrix(1,0,0,1,1094.79012345679,247.6688996438558) translate(75.85000000000001 85.68000000000002)"/><use xlink:href="#f" transform="matrix(1,0,0,1,1094.79012345679,247.6688996438558) translate(0 109.44000000000003)"/><use xlink:href="#d" transform="matrix(1,0,0,1,1094.79012345679,247.6688996438558) translate(66.85000000000001 109.44000000000003)"/><use xlink:href="#g" transform="matrix(1,0,0,1,1094.79012345679,247.6688996438558) translate(0 133.20000000000002)"/><path d="M602.3 31.8c40.68 0 73.67 17.9 73.67 40 0 22.08-33 40-73.67 40h-221c-40.7 0-73.68-17.92-73.68-40 0-22.1 32.98-40 73.67-40z" stroke="#494949" stroke-width="2" fill="#fff"/><use xlink:href="#h" transform="matrix(1,0,0,1,322.6150972475383,46.79012345679013) translate(68.72500000000002 28.6)"/><path d="M259.8 571.8h222.66v146.63H259.8z" stroke="#494949" stroke-width="2" fill="#fff"/><use xlink:href="#i" transform="matrix(1,0,0,1,274.7901234567901,586.7901234567902) translate(0 14.4)"/><use xlink:href="#c" transform="matrix(1,0,0,1,274.7901234567901,586.7901234567902) translate(0 38.160000000000004)"/><use xlink:href="#d" transform="matrix(1,0,0,1,274.7901234567901,586.7901234567902) translate(95.10000000000001 38.160000000000004)"/><use xlink:href="#e" transform="matrix(1,0,0,1,274.7901234567901,586.7901234567902) translate(0 61.92000000000001)"/><use xlink:href="#d" transform="matrix(1,0,0,1,274.7901234567901,586.7901234567902) translate(75.85000000000001 61.92000000000001)"/><use xlink:href="#f" transform="matrix(1,0,0,1,274.7901234567901,586.7901234567902) translate(0 85.68000000000002)"/><use xlink:href="#d" transform="matrix(1,0,0,1,274.7901234567901,586.7901234567902) translate(66.85000000000001 85.68000000000002)"/><use xlink:href="#g" transform="matrix(1,0,0,1,274.7901234567901,586.7901234567902) translate(0 109.44000000000003)"/><path d="M319.8 252.8h343.66v120H319.8z" stroke="#494949" stroke-width="2" fill="#fff"/><use xlink:href="#j" transform="matrix(1,0,0,1,334.7901234567901,267.7901234567901) translate(0.6500000000000341 48.6)"/><path d="M663.46 312.8h104.91" stroke="#494949" stroke-width="2" fill="none"/><path d="M768.37 312.8l-14.26 4.63v-9.28z" fill="#494949"/><path d="M769.33 312.05l-.96.74.96.73-16.22 5.27v-12.02zm-14.22 4l10.04-3.26-10.03-3.27z" fill="#494949"/><path d="M974.87 312.8h52.46v.43h52.46" stroke="#494949" stroke-width="2" fill="none"/><path d="M974.87 313.8h-1.28l1.27-1-1.28-1h1.27zM1079.8 313.23l-14.28 4.63v-9.27z" fill="#494949"/><path d="M1079.8 312.18v2.1l-15.28 4.96v-12.02zm-13.28 4.3l10.03-3.25-10.03-3.26z" fill="#494949"/><use xlink:href="#k" transform="matrix(1,0,0,1,1015.3509410221229,317.21982041595317) translate(0 14.4)"/><path d="M491.8 111.8v70.5h-.4v70.5" stroke="#494949" stroke-width="2" fill="none"/><path d="M491.4 252.8l-4.65-14.28h9.27z" fill="#494949"/><path d="M492.44 252.8h-2.1l-4.96-15.28h12.02zm-4.3-13.28l3.25 10.03 3.25-10.03z" fill="#494949"/><path d="M871.62 232.23l103.25 80.56-103.25 80.55-103.25-80.56z" stroke="#494949" stroke-width="2" fill="#fff"/><use xlink:href="#l" transform="matrix(1,0,0,1,783.3748342005917,247.22951155032285) translate(47.55 69.60000000000001)"/><use xlink:href="#m" transform="matrix(1,0,0,1,783.3748342005917,247.22951155032285) translate(99.44999999999999 69.60000000000001)"/><path d="M839.46 451.8l103.25 80.55-103.24 80.56-103.25-80.55z" stroke="#494949" stroke-width="2" fill="#fff"/><use xlink:href="#n" transform="matrix(1,0,0,1,751.2054127129884,466.79012345679) translate(4.099999999999994 69.60000000000001)"/><use xlink:href="#o" transform="matrix(1,0,0,1,751.2054127129884,466.79012345679) translate(136.9 69.60000000000001)"/><use xlink:href="#p" transform="matrix(1,0,0,1,751.2054127129884,466.79012345679) translate(162.9 69.60000000000001)"/><path d="M736.2 532.35H609.84V644.6H483.46" stroke="#494949" stroke-width="2" fill="none"/><path d="M736.2 532.35l1.3 1h-1.3v-2h1.3zM497.73 649.22l-14.27-4.63 14.27-4.65z" fill="#494949"/><path d="M498.73 650.6l-16.27-5.3v-1.44l16.27-5.3zm-12.03-6l10.03 3.24v-6.5z" fill="#494949"/><use xlink:href="#q" transform="matrix(1,0,0,1,625.4718261888366,536.3507353632572) translate(0 14.4)"/><path d="M1136.3 639c0 14.43-12.55 26.12-28 26.12-15.47 0-28-11.7-28-26.1 0-14.43 12.53-26.12 28-26.12 15.45 0 28 11.7 28 26.1z" stroke="#494949" stroke-width="2" fill="#fff"/><use xlink:href="#r" transform="matrix(1,0,0,1,1085.29012345679,617.8955109147814) translate(5.524999999999999 25.1)"/><path d="M1227.8 639.23c0 14.42-12.55 26.1-28 26.1-15.47 0-28-11.68-28-26.1 0-14.42 12.53-26.1 28-26.1 15.45 0 28 11.68 28 26.1z" stroke="#494949" stroke-width="2" fill="#fff"/><use xlink:href="#s" transform="matrix(1,0,0,1,1176.79012345679,618.1196645269397) translate(5.524999999999999 25.1)"/><path d="M1319.3 639.23c0 14.42-12.55 26.1-28 26.1-15.47 0-28-11.68-28-26.1 0-14.42 12.53-26.1 28-26.1 15.45 0 28 11.68 28 26.1z" stroke="#494949" stroke-width="2" fill="#fff"/><use xlink:href="#t" transform="matrix(1,0,0,1,1268.29012345679,618.1196645269397) translate(5.524999999999999 25.1)"/><path d="M719.8 671.35H959.1v161.12H719.8z" stroke="#494949" stroke-width="2" fill="#fff"/><use xlink:href="#u" transform="matrix(1,0,0,1,734.785991225385,686.3507353632572) translate(0 14.4)"/><use xlink:href="#b" transform="matrix(1,0,0,1,734.785991225385,686.3507353632572) translate(0 38.160000000000004)"/><use xlink:href="#c" transform="matrix(1,0,0,1,734.785991225385,686.3507353632572) translate(0 61.92000000000001)"/><use xlink:href="#d" transform="matrix(1,0,0,1,734.785991225385,686.3507353632572) translate(95.10000000000001 61.92000000000001)"/><use xlink:href="#e" transform="matrix(1,0,0,1,734.785991225385,686.3507353632572) translate(0 85.68000000000002)"/><use xlink:href="#d" transform="matrix(1,0,0,1,734.785991225385,686.3507353632572) translate(75.85000000000001 85.68000000000002)"/><use xlink:href="#f" transform="matrix(1,0,0,1,734.785991225385,686.3507353632572) translate(0 109.44000000000003)"/><use xlink:href="#d" transform="matrix(1,0,0,1,734.785991225385,686.3507353632572) translate(66.85000000000001 109.44000000000003)"/><use xlink:href="#g" transform="matrix(1,0,0,1,734.785991225385,686.3507353632572) translate(0 133.20000000000002)"/><path d="M839.46 612.9v28.65h.66v28.63" stroke="#494949" stroke-width="2" fill="none"/><path d="M839.46 612.9h-1v-.77zm1 0h-1l1-.77zM840.12 670.18l-4.63-14.27h9.26z" fill="#494949"/><path d="M840.8 671.35h-1.35l-5.34-16.44h12.04zm-3.93-14.44l3.25 10.04 3.26-10.03z" fill="#494949"/><use xlink:href="#v" transform="matrix(1,0,0,1,848.0840139260656,630.6711613059061) translate(0 14.4)"/><path d="M719.8 751.9h-110V645.1H482.45" stroke="#494949" stroke-width="2" fill="none"/><path d="M496.73 649.75l-14.27-4.64 14.27-4.63z" fill="#494949"/><path d="M497.73 651.12l-15.27-4.96v-2.1l15.27-4.96zm-12.03-6l10.03 3.25v-6.52z" fill="#494949"/><path d="M1159.8 911.8h-108.55V532.34H942.7" stroke="#494949" stroke-width="2" fill="none"/><path d="M1159.8 911.8l.03 1h-.04v-2h.05zM956.97 537l-14.26-4.65 14.27-4.63z" fill="#494949"/><path d="M957.97 538.36l-16.22-5.27.96-.75-.95-.74 16.22-5.26zm-12.03-6l10.03 3.25v-6.5z" fill="#494949"/><path fill="#fff" d="M1021.27 711.27h59.96v21.6h-59.96z"/><use xlink:href="#w" transform="matrix(1,0,0,1,1021.2727680848892,711.2704294100237) translate(0 14.4)"/><path d="M1108.3 665.12v66.67h91.5v140" stroke="#494949" stroke-width="2" fill="none"/><path d="M1108.3 665.12h-1v-.1zm1 0h-1l1-.07zM1199.8 871.8l-4.65-14.28h9.28z" fill="#494949"/><path d="M1200.82 871.85l-1.03-.06-1.05.03-4.97-15.3h12.02zm-4.3-13.33l3.27 10.03 3.25-10.03z" fill="#494949"/><path d="M1199.8 665.34V871.8" stroke="#494949" stroke-width="2" fill="none"/><path d="M1199.8 665.34h-1v-.1zm1 0h-1l1-.07zM1199.8 871.8l-4.65-14.28h9.28z" fill="#494949"/><path d="M1200.82 871.85l-1.03-.06-1.05.03-4.97-15.3h12.02zm-4.3-13.33l3.27 10.03 3.25-10.03z" fill="#494949"/><path d="M1291.3 665.34v66.45h-91.5v140" stroke="#494949" stroke-width="2" fill="none"/><path d="M1291.3 665.34h-1v-.1zm1 0h-1l1-.07zM1199.8 871.8l-4.65-14.28h9.28z" fill="#494949"/><path d="M1200.82 871.85l-1.03-.06-1.05.03-4.97-15.3h12.02zm-4.3-13.33l3.27 10.03 3.25-10.03z" fill="#494949"/><path d="M1239.8 911.8c0 22.08-17.92 40-40 40-22.1 0-40-17.92-40-40 0-22.1 17.9-40 40-40 22.08 0 40 17.9 40 40z" stroke="#494949" stroke-width="2" fill="#fff"/><path d="M1159.8 911.8h80m-40-40v80" stroke="#494949" stroke-width="2" fill="none"/><path d="M371.8 771.8l172 60-172 60-172-60z" stroke="#494949" stroke-width="2" fill="#fff"/><use xlink:href="#x" transform="matrix(1,0,0,1,204.79012345679018,776.7901234567901) translate(101.05 47.8)"/><use xlink:href="#y" transform="matrix(1,0,0,1,204.79012345679018,776.7901234567901) translate(217 47.8)"/><use xlink:href="#z" transform="matrix(1,0,0,1,204.79012345679018,776.7901234567901) translate(45.80000000000001 69.4)"/><use xlink:href="#A" transform="matrix(1,0,0,1,204.79012345679018,776.7901234567901) translate(168.75 69.4)"/><use xlink:href="#B" transform="matrix(1,0,0,1,204.79012345679018,776.7901234567901) translate(184.25 69.4)"/><path d="M371.12 718.43v26.68h.67v26.7" stroke="#494949" stroke-width="2" fill="none"/><path d="M371.8 771.8l-4.65-14.28h9.28z" fill="#494949"/><path d="M372.73 772.12l-.94-.33-.95.32-5.07-15.6h12.02zm-4.2-13.6l3.26 10.03 3.25-10.03z" fill="#494949"/><path d="M252.12 968.9h239.34v146.65H252.12z" stroke="#494949" stroke-width="2" fill="#fff"/><use xlink:href="#C" transform="matrix(1,0,0,1,267.1207019691869,983.9101234567901) translate(0 14.4)"/><use xlink:href="#D" transform="matrix(1,0,0,1,267.1207019691869,983.9101234567901) translate(0 38.160000000000004)"/><use xlink:href="#d" transform="matrix(1,0,0,1,267.1207019691869,983.9101234567901) translate(101.05000000000001 38.160000000000004)"/><use xlink:href="#e" transform="matrix(1,0,0,1,267.1207019691869,983.9101234567901) translate(0 61.92000000000001)"/><use xlink:href="#d" transform="matrix(1,0,0,1,267.1207019691869,983.9101234567901) translate(75.85000000000001 61.92000000000001)"/><use xlink:href="#f" transform="matrix(1,0,0,1,267.1207019691869,983.9101234567901) translate(0 85.68000000000002)"/><use xlink:href="#d" transform="matrix(1,0,0,1,267.1207019691869,983.9101234567901) translate(66.85000000000001 85.68000000000002)"/><use xlink:href="#g" transform="matrix(1,0,0,1,267.1207019691869,983.9101234567901) translate(0 109.44000000000003)"/><path d="M371.8 891.8v76.05" stroke="#494949" stroke-width="2" fill="none"/><path d="M371.8 891.8h-1v-.36zm1 0h-1l1-.36zM371.8 967.85l-4.65-14.27h9.28z" fill="#494949"/><path d="M372.5 968.9h-1.42l-5.3-16.32h12.02zm-3.97-14.32l3.26 10.03 3.25-10.02z" fill="#494949"/><path fill="#fff" d="M357.12 919.02h29.36v21.6h-29.36z"/><use xlink:href="#q" transform="matrix(1,0,0,1,357.1151234567902,919.0177131358336) translate(0 14.4)"/><path d="M1199.8 470.8v71h-91.5v71.1" stroke="#494949" stroke-width="2" fill="none"/><path d="M1108.3 612.9l-4.65-14.27h9.28z" fill="#494949"/><path d="M1109.3 613l-1-.1-1.04.07-4.98-15.34h12.02zm-4.27-13.37l3.26 10.03 3.25-10.03z" fill="#494949"/><path d="M1199.46 393.8v147h91.83v72.32" stroke="#494949" stroke-width="2" fill="none"/><path d="M1291.3 613.12l-4.65-14.27h9.28z" fill="#494949"/><path d="M1292.3 613.2l-1-.08-1.04.07-4.98-15.35h12.02zm-4.27-13.35l3.26 10.03 3.25-10.03z" fill="#494949"/><path d="M1199.46 393.8v217.34" stroke="#494949" stroke-width="2" fill="none"/><path d="M1199.46 611.14l-4.64-14.27h9.27z" fill="#494949"/><path d="M1199.86 613.13h-.07l-.73.04-5.62-17.3h12.02zm-3.66-15.26l3.26 10.03 3.26-10.03z" fill="#494949"/><path d="M655.8 969.15h239.33v146.64H655.8z" stroke="#494949" stroke-width="2" fill="#fff"/><use xlink:href="#E" transform="matrix(1,0,0,1,670.7901234567901,984.1501234567901) translate(0 14.4)"/><use xlink:href="#D" transform="matrix(1,0,0,1,670.7901234567901,984.1501234567901) translate(0 38.160000000000004)"/><use xlink:href="#d" transform="matrix(1,0,0,1,670.7901234567901,984.1501234567901) translate(101.05000000000001 38.160000000000004)"/><use xlink:href="#e" transform="matrix(1,0,0,1,670.7901234567901,984.1501234567901) translate(0 61.92000000000001)"/><use xlink:href="#d" transform="matrix(1,0,0,1,670.7901234567901,984.1501234567901) translate(75.85000000000001 61.92000000000001)"/><use xlink:href="#f" transform="matrix(1,0,0,1,670.7901234567901,984.1501234567901) translate(0 85.68000000000002)"/><use xlink:href="#d" transform="matrix(1,0,0,1,670.7901234567901,984.1501234567901) translate(66.85000000000001 85.68000000000002)"/><use xlink:href="#g" transform="matrix(1,0,0,1,670.7901234567901,984.1501234567901) translate(0 109.44000000000003)"/><path d="M492.46 1041.8H654.8" stroke="#494949" stroke-width="2" fill="none"/><path d="M492.46 1042.8h-1v-2h1zM654.8 1041.8l-14.28 4.63v-9.28z" fill="#494949"/><path d="M655.8 1041.06v1.46l-16.28 5.28v-12.02zm-14.28 4l10.03-3.27-10.03-3.27z" fill="#494949"/><use xlink:href="#F" transform="matrix(1,0,0,1,541.04983395679,1045.79012345679) translate(0 14.4)"/><path d="M498.8 1340c0 14.43-12.55 26.12-28 26.12-15.47 0-28-11.7-28-26.1 0-14.43 12.53-26.12 28-26.12 15.45 0 28 11.7 28 26.1z" stroke="#494949" stroke-width="2" fill="#fff"/><use xlink:href="#r" transform="matrix(1,0,0,1,447.7901234567901,1318.8955109147814) translate(5.524999999999999 25.1)"/><path d="M590.3 1340.23c0 14.42-12.55 26.1-28 26.1-15.47 0-28-11.68-28-26.1 0-14.42 12.53-26.1 28-26.1 15.45 0 28 11.68 28 26.1z" stroke="#494949" stroke-width="2" fill="#fff"/><use xlink:href="#s" transform="matrix(1,0,0,1,539.2901234567901,1319.1196645269397) translate(5.524999999999999 25.1)"/><path d="M681.8 1340.23c0 14.42-12.55 26.1-28 26.1-15.47 0-28-11.68-28-26.1 0-14.42 12.53-26.1 28-26.1 15.45 0 28 11.68 28 26.1z" stroke="#494949" stroke-width="2" fill="#fff"/><use xlink:href="#t" transform="matrix(1,0,0,1,630.7901234567901,1319.1196645269397) translate(5.524999999999999 25.1)"/><path d="M562.3 1171.8v71.04h-91.5v71.06" stroke="#494949" stroke-width="2" fill="none"/><path d="M470.8 1313.9l-4.65-14.27h9.28z" fill="#494949"/><path d="M471.8 1314l-1-.1-1.04.07-4.98-15.34h12.02zm-4.27-13.37l3.26 10.03 3.25-10.03z" fill="#494949"/><use xlink:href="#G" transform="matrix(1,0,0,1,371.54012345679007,1212.6248666413899) translate(0 14.4)"/><path d="M561.96 1173.8v68h91.83v72.32" stroke="#494949" stroke-width="2" fill="none"/><path d="M653.8 1314.12l-4.65-14.27h9.28z" fill="#494949"/><path d="M654.8 1314.2l-1-.08-1.04.07-4.98-15.35h12.02zm-4.27-13.35l3.26 10.03 3.25-10.03z" fill="#494949"/><use xlink:href="#H" transform="matrix(1,0,0,1,661.7901234567901,1249.0979910318542) translate(0 14.4)"/><use xlink:href="#I" transform="matrix(1,0,0,1,661.7901234567901,1249.0979910318542) translate(54.95 14.4)"/><use xlink:href="#J" transform="matrix(1,0,0,1,661.7901234567901,1249.0979910318542) translate(0 36)"/><path d="M561.96 1173.8v138.34" stroke="#494949" stroke-width="2" fill="none"/><path d="M561.96 1312.14l-4.64-14.27h9.27z" fill="#494949"/><path d="M562.36 1314.13h-.07l-.73.04-5.62-17.3h12.02zm-3.66-15.26l3.26 10.03 3.26-10.03z" fill="#494949"/><path d="M599.8 1171.8h-228v-56.25M599.8 1171.8h175.13v-55" stroke="#494949" stroke-width="2" fill="none"/><path d="M775.93 1116.8h-2v-1h2z" fill="#494949"/><path d="M839.8 1279.8h239.33v120H839.8z" stroke="#494949" stroke-width="2" fill="#fff"/><g><use xlink:href="#K" transform="matrix(1,0,0,1,854.7901234567903,1294.79012345679) translate(81.525 36.72)"/><use xlink:href="#L" transform="matrix(1,0,0,1,854.7901234567903,1294.79012345679) translate(12.025000000000006 60.48)"/><use xlink:href="#M" transform="matrix(1,0,0,1,854.7901234567903,1294.79012345679) translate(61.22500000000001 60.48)"/></g><path d="M681.8 1340.23h78.5v-.08h78.5" stroke="#494949" stroke-width="2" fill="none"/><path d="M681.8 1341.23h-.1l.1-1-.08-1h.07zM838.8 1340.15l-14.28 4.64v-9.28z" fill="#494949"/><path d="M839.8 1339.42v1.46l-16.28 5.28v-12.02zm-14.28 4l10.03-3.27-10.03-3.26z" fill="#494949"/><path d="M166.8 1471.8h392v120h-392z" stroke="#494949" stroke-width="2" fill="#fff"/><g><use xlink:href="#N" transform="matrix(1,0,0,1,171.79012345679013,1476.79012345679) translate(11.725000000000023 26.19999999999999)"/><use xlink:href="#O" transform="matrix(1,0,0,1,171.79012345679013,1476.79012345679) translate(162.05 47.79999999999999)"/><use xlink:href="#P" transform="matrix(1,0,0,1,171.79012345679013,1476.79012345679) translate(143.6 69.39999999999999)"/><use xlink:href="#Q" transform="matrix(1,0,0,1,171.79012345679013,1476.79012345679) translate(154.1 91)"/></g><path d="M470.8 1366.12v52.83h-108v52.84" stroke="#494949" stroke-width="2" fill="none"/><path d="M470.8 1366.12h-1v-.1zm1 0h-1l1-.07zM362.8 1471.8l-4.65-14.28h9.28z" fill="#494949"/><path d="M363.84 1471.8h-2.1l-4.96-15.28h12.02zm-4.3-13.28l3.25 10.03 3.25-10.03z" fill="#494949"/><path d="M653.8 1366.34v52.73h-291v52.72" stroke="#494949" stroke-width="2" fill="none"/><path d="M653.8 1366.34h-1v-.1zm1 0h-1l1-.07zM362.8 1471.8l-4.65-14.28h9.28z" fill="#494949"/><path d="M363.84 1471.8h-2.1l-4.96-15.28h12.02zm-4.3-13.28l3.25 10.03 3.25-10.03z" fill="#494949"/><path d="M562.3 1366.34v52.23h-200v52.22" stroke="#494949" stroke-width="2" fill="none"/><path d="M562.3 1366.34h-1v-.1zm1 0h-1l1-.07zM362.3 1470.8l-4.65-14.28h9.28z" fill="#494949"/><path d="M363.02 1471.8h-1.46l-5.28-16.28h12.02zm-4-14.28l3.27 10.03 3.25-10.03z" fill="#494949"/><path d="M41.8 292.3h160v120h-160z" stroke="#494949" stroke-width="2" fill="#fff"/><g><use xlink:href="#R" transform="matrix(1,0,0,1,46.79012345679013,297.2901234567901) translate(21.574999999999996 26.19999999999999)"/><use xlink:href="#S" transform="matrix(1,0,0,1,46.79012345679013,297.2901234567901) translate(34.025 47.79999999999999)"/><use xlink:href="#T" transform="matrix(1,0,0,1,46.79012345679013,297.2901234567901) translate(95.975 47.79999999999999)"/><use xlink:href="#U" transform="matrix(1,0,0,1,46.79012345679013,297.2901234567901) translate(15.099999999999994 69.39999999999999)"/><use xlink:href="#V" transform="matrix(1,0,0,1,46.79012345679013,297.2901234567901) translate(104.9 69.39999999999999)"/><use xlink:href="#W" transform="matrix(1,0,0,1,46.79012345679013,297.2901234567901) translate(3.1999999999999886 91)"/><use xlink:href="#X" transform="matrix(1,0,0,1,46.79012345679013,297.2901234567901) translate(37.099999999999994 91)"/><use xlink:href="#Y" transform="matrix(1,0,0,1,46.79012345679013,297.2901234567901) translate(77.05 91)"/></g><path d="M121.8 292.3v-60.5" stroke="#494949" stroke-width="2" fill="none"/><path d="M126.43 246.06h-9.28l4.64-14.27z" fill="#494949"/><path d="M127.8 247.06h-12.02l4.96-15.27h2.1zm-9.27-2h6.52l-3.26-10.03z" fill="#494949"/><g><use xlink:href="#Z" transform="matrix(1,0,0,1,94.79012345679013,251.24012345679012) translate(0 14.4)"/></g><path d="M31.8 492.8h108v907h-108z" stroke="#494949" stroke-width="2" fill="#fff"/><g><path d="M32.6 1395.47V495.2h108.5v900.27z" stroke="#494949" stroke-width="2" fill="#fff"/></g><g><use xlink:href="#aa" transform="matrix(6.123233995736766e-17,-1,1,6.123233995736766e-17,37.58593400053326,1390.4740945506192) translate(232.25 53.1)"/><use xlink:href="#ab" transform="matrix(6.123233995736766e-17,-1,1,6.123233995736766e-17,37.58593400053326,1390.4740945506192) translate(277.25 53.1)"/><use xlink:href="#ac" transform="matrix(6.123233995736766e-17,-1,1,6.123233995736766e-17,37.58593400053326,1390.4740945506192) translate(371.15 53.1)"/><use xlink:href="#ad" transform="matrix(6.123233995736766e-17,-1,1,6.123233995736766e-17,37.58593400053326,1390.4740945506192) translate(444.05 53.1)"/><use xlink:href="#ae" transform="matrix(6.123233995736766e-17,-1,1,6.123233995736766e-17,37.58593400053326,1390.4740945506192) translate(512.9 53.1)"/><use xlink:href="#af" transform="matrix(6.123233995736766e-17,-1,1,6.123233995736766e-17,37.58593400053326,1390.4740945506192) translate(547.9 53.1)"/><use xlink:href="#ag" transform="matrix(6.123233995736766e-17,-1,1,6.123233995736766e-17,37.58593400053326,1390.4740945506192) translate(590.9 53.1)"/></g><path d="M319.8 312.8h-30v39.5h-88" stroke="#494949" stroke-width="2" fill="none"/><path d="M216.06 356.93l-14.27-4.64 14.26-4.65z" fill="#494949"/><path d="M217.06 358.3l-15.27-4.96v-2.1l15.26-4.96zm-12.03-6l10.03 3.25v-6.52z" fill="#494949"/><g><use xlink:href="#ah" transform="matrix(1,0,0,1,232.94572974949213,356.2901234567901) translate(0 14.4)"/></g><path d="M319.8 312.8h-30v129H86.83v53.4" stroke="#494949" stroke-width="2" fill="none"/><path d="M86.84 495.2l-4.63-14.26h9.28z" fill="#494949"/><path d="M87.9 495.2h-2.1l-4.97-15.26h12.03zm-4.3-13.26l3.24 10.03 3.26-10.03z" fill="#494949"/><path d="M166.8 1531.8h-81v-132" stroke="#494949" stroke-width="2" fill="none"/><path d="M90.43 1414.06h-9.28l4.64-14.27z" fill="#494949"/><path d="M91.8 1415.06H79.78l4.96-15.27h2.1zm-9.27-2h6.52l-3.26-10.03z" fill="#494949"/><g><use xlink:href="#ai" transform="matrix(1,0,0,1,19.840123456790117,1459.8250482487172) translate(0 14.4)"/></g><path d="M41.8 111.8h160v120h-160z" stroke="#494949" stroke-width="2" fill="#fff"/><g><use xlink:href="#aj" transform="matrix(1,0,0,1,46.79012345679013,116.79012345679013) translate(3.5999999999999943 26.19999999999999)"/><use xlink:href="#ak" transform="matrix(1,0,0,1,46.79012345679013,116.79012345679013) translate(61.025 47.79999999999999)"/><use xlink:href="#al" transform="matrix(1,0,0,1,46.79012345679013,116.79012345679013) translate(51.099999999999994 69.39999999999999)"/><use xlink:href="#am" transform="matrix(1,0,0,1,46.79012345679013,116.79012345679013) translate(11.024999999999991 91)"/></g><defs><path fill="#494949" d="M30-248c87 1 191-15 191 75 0 78-77 80-158 76V0H30v-248zm33 125c57 0 124 11 124-50 0-59-68-47-124-48v98" id="an"/><path fill="#494949" d="M114-163C36-179 61-72 57 0H25l-1-190h30c1 12-1 29 2 39 6-27 23-49 58-41v29" id="ao"/><path fill="#494949" d="M100-194c63 0 86 42 84 106H49c0 40 14 67 53 68 26 1 43-12 49-29l28 8c-11 28-37 45-77 45C44 4 14-33 15-96c1-61 26-98 85-98zm52 81c6-60-76-77-97-28-3 7-6 17-6 28h103" id="ap"/><path fill="#494949" d="M141-36C126-15 110 5 73 4 37 3 15-17 15-53c-1-64 63-63 125-63 3-35-9-54-41-54-24 1-41 7-42 31l-33-3c5-37 33-52 76-52 45 0 72 20 72 64v82c-1 20 7 32 28 27v20c-31 9-61-2-59-35zM48-53c0 20 12 33 32 33 41-3 63-29 60-74-43 2-92-5-92 41" id="aq"/><path fill="#494949" d="M210-169c-67 3-38 105-44 169h-31v-121c0-29-5-50-35-48C34-165 62-65 56 0H25l-1-190h30c1 10-1 24 2 32 10-44 99-50 107 0 11-21 27-35 58-36 85-2 47 119 55 194h-31v-121c0-29-5-49-35-48" id="ar"/><path fill="#494949" d="M115-194c53 0 69 39 70 98 0 66-23 100-70 100C84 3 66-7 56-30L54 0H23l1-261h32v101c10-23 28-34 59-34zm-8 174c40 0 45-34 45-75 0-40-5-75-45-74-42 0-51 32-51 76 0 43 10 73 51 73" id="as"/><path fill="#494949" d="M24 0v-261h32V0H24" id="at"/><path fill="#494949" d="M185-189c-5-48-123-54-124 2 14 75 158 14 163 119 3 78-121 87-175 55-17-10-28-26-33-46l33-7c5 56 141 63 141-1 0-78-155-14-162-118-5-82 145-84 179-34 5 7 8 16 11 25" id="au"/><path fill="#494949" d="M117-194c89-4 53 116 60 194h-32v-121c0-31-8-49-39-48C34-167 62-67 57 0H25l-1-190h30c1 10-1 24 2 32 11-22 29-35 61-36" id="av"/><path fill="#494949" d="M85-194c31 0 48 13 60 33l-1-100h32l1 261h-30c-2-10 0-23-3-31C134-8 116 4 85 4 32 4 16-35 15-94c0-66 23-100 70-100zm9 24c-40 0-46 34-46 75 0 40 6 74 45 74 42 0 51-32 51-76 0-42-9-74-50-73" id="aw"/><path fill="#494949" d="M27 0v-27h64v-190l-56 39v-29l58-41h29v221h61V0H27" id="ax"/><path fill="#494949" d="M106-169C34-169 62-67 57 0H25v-261h32l-1 103c12-21 28-36 61-36 89 0 53 116 60 194h-32v-121c2-32-8-49-39-48" id="ay"/><path fill="#494949" d="M100-194c62-1 85 37 85 99 1 63-27 99-86 99S16-35 15-95c0-66 28-99 85-99zM99-20c44 1 53-31 53-75 0-43-8-75-51-75s-53 32-53 75 10 74 51 75" id="az"/><path fill="#494949" d="M115-194c55 1 70 41 70 98S169 2 115 4C84 4 66-9 55-30l1 105H24l-1-265h31l2 30c10-21 28-34 59-34zm-8 174c40 0 45-34 45-75s-6-73-45-74c-42 0-51 32-51 76 0 43 10 73 51 73" id="aA"/><g id="a"><use transform="matrix(0.05,0,0,0.05,0,0)" xlink:href="#an"/><use transform="matrix(0.05,0,0,0.05,12,0)" xlink:href="#ao"/><use transform="matrix(0.05,0,0,0.05,17.95,0)" xlink:href="#ap"/><use transform="matrix(0.05,0,0,0.05,27.950000000000003,0)" xlink:href="#aq"/><use transform="matrix(0.05,0,0,0.05,37.95,0)" xlink:href="#ar"/><use transform="matrix(0.05,0,0,0.05,52.900000000000006,0)" xlink:href="#as"/><use transform="matrix(0.05,0,0,0.05,62.900000000000006,0)" xlink:href="#at"/><use transform="matrix(0.05,0,0,0.05,66.85000000000001,0)" xlink:href="#ap"/><use transform="matrix(0.05,0,0,0.05,76.85000000000001,0)" xlink:href="#au"/><use transform="matrix(0.05,0,0,0.05,88.85000000000001,0)" xlink:href="#ap"/><use transform="matrix(0.05,0,0,0.05,98.85000000000001,0)" xlink:href="#av"/><use transform="matrix(0.05,0,0,0.05,108.85000000000001,0)" xlink:href="#aw"/><use transform="matrix(0.05,0,0,0.05,118.85000000000001,0)" xlink:href="#ap"/><use transform="matrix(0.05,0,0,0.05,128.85000000000002,0)" xlink:href="#ao"/><use transform="matrix(0.05,0,0,0.05,134.8,0)" xlink:href="#ax"/><use transform="matrix(0.05,0,0,0.05,144.8,0)" xlink:href="#ay"/><use transform="matrix(0.05,0,0,0.05,154.8,0)" xlink:href="#az"/><use transform="matrix(0.05,0,0,0.05,164.8,0)" xlink:href="#aA"/></g><path fill="#494949" d="M87 75C49 33 22-17 22-94c0-76 28-126 65-167h31c-38 41-64 92-64 168S80 34 118 75H87" id="aB"/><g id="b"><use transform="matrix(0.05,0,0,0.05,0,0)" xlink:href="#aB"/><use transform="matrix(0.05,0,0,0.05,5.95,0)" xlink:href="#an"/><use transform="matrix(0.05,0,0,0.05,17.95,0)" xlink:href="#ao"/><use transform="matrix(0.05,0,0,0.05,23.9,0)" xlink:href="#ap"/><use transform="matrix(0.05,0,0,0.05,33.9,0)" xlink:href="#aq"/><use transform="matrix(0.05,0,0,0.05,43.9,0)" xlink:href="#ar"/><use transform="matrix(0.05,0,0,0.05,58.85,0)" xlink:href="#as"/><use transform="matrix(0.05,0,0,0.05,68.85,0)" xlink:href="#at"/><use transform="matrix(0.05,0,0,0.05,72.8,0)" xlink:href="#ap"/></g><path fill="#494949" d="M127-220V0H93v-220H8v-28h204v28h-85" id="aC"/><path fill="#494949" d="M135-143c-3-34-86-38-87 0 15 53 115 12 119 90S17 21 10-45l28-5c4 36 97 45 98 0-10-56-113-15-118-90-4-57 82-63 122-42 12 7 21 19 24 35" id="aD"/><path fill="#494949" d="M24-231v-30h32v30H24zM24 0v-190h32V0H24" id="aE"/><path fill="#494949" d="M59-47c-2 24 18 29 38 22v24C64 9 27 4 27-40v-127H5v-23h24l9-43h21v43h35v23H59v120" id="aF"/><g id="c"><use transform="matrix(0.05,0,0,0.05,0,0)" xlink:href="#aC"/><use transform="matrix(0.05,0,0,0.05,10.3,0)" xlink:href="#ao"/><use transform="matrix(0.05,0,0,0.05,16.25,0)" xlink:href="#aq"/><use transform="matrix(0.05,0,0,0.05,26.25,0)" xlink:href="#av"/><use transform="matrix(0.05,0,0,0.05,36.25,0)" xlink:href="#aD"/><use transform="matrix(0.05,0,0,0.05,45.25,0)" xlink:href="#ar"/><use transform="matrix(0.05,0,0,0.05,60.2,0)" xlink:href="#aE"/><use transform="matrix(0.05,0,0,0.05,64.15,0)" xlink:href="#aF"/><use transform="matrix(0.05,0,0,0.05,69.15,0)" xlink:href="#aF"/><use transform="matrix(0.05,0,0,0.05,74.15,0)" xlink:href="#ap"/><use transform="matrix(0.05,0,0,0.05,84.15,0)" xlink:href="#ao"/></g><path fill="#494949" d="M205 0l-28-72H64L36 0H1l101-248h38L239 0h-34zm-38-99l-47-123c-12 45-31 82-46 123h93" id="aG"/><g id="d"><use transform="matrix(0.05,0,0,0.05,0,0)" xlink:href="#aG"/><use transform="matrix(0.05,0,0,0.05,12,0)" xlink:href="#aw"/><use transform="matrix(0.05,0,0,0.05,22,0)" xlink:href="#aw"/><use transform="matrix(0.05,0,0,0.05,32,0)" xlink:href="#ao"/><use transform="matrix(0.05,0,0,0.05,37.95,0)" xlink:href="#ap"/><use transform="matrix(0.05,0,0,0.05,47.95,0)" xlink:href="#aD"/><use transform="matrix(0.05,0,0,0.05,56.95,0)" xlink:href="#aD"/></g><path fill="#494949" d="M233-177c-1 41-23 64-60 70L243 0h-38l-65-103H63V0H30v-248c88 3 205-21 203 71zM63-129c60-2 137 13 137-47 0-61-80-42-137-45v92" id="aH"/><path fill="#494949" d="M96-169c-40 0-48 33-48 73s9 75 48 75c24 0 41-14 43-38l32 2c-6 37-31 61-74 61-59 0-76-41-82-99-10-93 101-131 147-64 4 7 5 14 7 22l-32 3c-4-21-16-35-41-35" id="aI"/><path fill="#494949" d="M108 0H70L1-190h34L89-25l56-165h34" id="aJ"/><g id="e"><use transform="matrix(0.05,0,0,0.05,0,0)" xlink:href="#aH"/><use transform="matrix(0.05,0,0,0.05,12.950000000000001,0)" xlink:href="#ap"/><use transform="matrix(0.05,0,0,0.05,22.950000000000003,0)" xlink:href="#aI"/><use transform="matrix(0.05,0,0,0.05,31.950000000000003,0)" xlink:href="#ap"/><use transform="matrix(0.05,0,0,0.05,41.95,0)" xlink:href="#aE"/><use transform="matrix(0.05,0,0,0.05,45.900000000000006,0)" xlink:href="#aJ"/><use transform="matrix(0.05,0,0,0.05,54.900000000000006,0)" xlink:href="#ap"/><use transform="matrix(0.05,0,0,0.05,64.9,0)" xlink:href="#ao"/></g><path fill="#494949" d="M179-190L93 31C79 59 56 82 12 73V49c39 6 53-20 64-50L1-190h34L92-34l54-156h33" id="aK"/><g id="f"><use transform="matrix(0.05,0,0,0.05,0,0)" xlink:href="#aH"/><use transform="matrix(0.05,0,0,0.05,12.950000000000001,0)" xlink:href="#ap"/><use transform="matrix(0.05,0,0,0.05,22.950000000000003,0)" xlink:href="#at"/><use transform="matrix(0.05,0,0,0.05,26.900000000000002,0)" xlink:href="#aq"/><use transform="matrix(0.05,0,0,0.05,36.900000000000006,0)" xlink:href="#aK"/><use transform="matrix(0.05,0,0,0.05,45.900000000000006,0)" xlink:href="#ap"/><use transform="matrix(0.05,0,0,0.05,55.900000000000006,0)" xlink:href="#ao"/></g><path fill="#494949" d="M30-248c118-7 216 8 213 122C240-48 200 0 122 0H30v-248zM63-27c89 8 146-16 146-99s-60-101-146-95v194" id="aL"/><path fill="#494949" d="M84 4C-5 8 30-112 23-190h32v120c0 31 7 50 39 49 72-2 45-101 50-169h31l1 190h-30c-1-10 1-25-2-33-11 22-28 36-60 37" id="aM"/><path fill="#494949" d="M33-261c38 41 65 92 65 168S71 34 33 75H2C39 34 66-17 66-93S39-220 2-261h31" id="aN"/><g id="g"><use transform="matrix(0.05,0,0,0.05,0,0)" xlink:href="#aL"/><use transform="matrix(0.05,0,0,0.05,12.950000000000001,0)" xlink:href="#aM"/><use transform="matrix(0.05,0,0,0.05,22.950000000000003,0)" xlink:href="#ao"/><use transform="matrix(0.05,0,0,0.05,28.900000000000002,0)" xlink:href="#aq"/><use transform="matrix(0.05,0,0,0.05,38.900000000000006,0)" xlink:href="#aF"/><use transform="matrix(0.05,0,0,0.05,43.900000000000006,0)" xlink:href="#aE"/><use transform="matrix(0.05,0,0,0.05,47.85000000000001,0)" xlink:href="#az"/><use transform="matrix(0.05,0,0,0.05,57.85,0)" xlink:href="#av"/><use transform="matrix(0.05,0,0,0.05,67.85000000000001,0)" xlink:href="#aN"/></g><path fill="#494949" d="M177-190C167-65 218 103 67 71c-23-6-38-20-44-43l32-5c15 47 100 32 89-28v-30C133-14 115 1 83 1 29 1 15-40 15-95c0-56 16-97 71-98 29-1 48 16 59 35 1-10 0-23 2-32h30zM94-22c36 0 50-32 50-73 0-42-14-75-50-75-39 0-46 34-46 75s6 73 46 73" id="aO"/><path fill="#494949" d="M33 0v-248h34V0H33" id="aP"/><g id="h"><use transform="matrix(0.05,0,0,0.05,0,0)" xlink:href="#an"/><use transform="matrix(0.05,0,0,0.05,12,0)" xlink:href="#ao"/><use transform="matrix(0.05,0,0,0.05,17.95,0)" xlink:href="#ap"/><use transform="matrix(0.05,0,0,0.05,27.950000000000003,0)" xlink:href="#aq"/><use transform="matrix(0.05,0,0,0.05,37.95,0)" xlink:href="#ar"/><use transform="matrix(0.05,0,0,0.05,52.900000000000006,0)" xlink:href="#as"/><use transform="matrix(0.05,0,0,0.05,62.900000000000006,0)" xlink:href="#at"/><use transform="matrix(0.05,0,0,0.05,66.85000000000001,0)" xlink:href="#ap"/><use transform="matrix(0.05,0,0,0.05,76.85000000000001,0)" xlink:href="#au"/><use transform="matrix(0.05,0,0,0.05,88.85000000000001,0)" xlink:href="#ap"/><use transform="matrix(0.05,0,0,0.05,98.85000000000001,0)" xlink:href="#av"/><use transform="matrix(0.05,0,0,0.05,108.85000000000001,0)" xlink:href="#aw"/><use transform="matrix(0.05,0,0,0.05,118.85000000000001,0)" xlink:href="#aE"/><use transform="matrix(0.05,0,0,0.05,122.80000000000001,0)" xlink:href="#av"/><use transform="matrix(0.05,0,0,0.05,132.8,0)" xlink:href="#aO"/><use transform="matrix(0.05,0,0,0.05,142.8,0)" xlink:href="#aC"/><use transform="matrix(0.05,0,0,0.05,153.75,0)" xlink:href="#aP"/><use transform="matrix(0.05,0,0,0.05,158.75,0)" xlink:href="#ar"/><use transform="matrix(0.05,0,0,0.05,173.7,0)" xlink:href="#ap"/><use transform="matrix(0.05,0,0,0.05,183.7,0)" xlink:href="#ao"/><use transform="matrix(0.05,0,0,0.05,189.64999999999998,0)" xlink:href="#aB"/><use transform="matrix(0.05,0,0,0.05,195.59999999999997,0)" xlink:href="#aN"/></g><path fill="#494949" d="M212-179c-10-28-35-45-73-45-59 0-87 40-87 99 0 60 29 101 89 101 43 0 62-24 78-52l27 14C228-24 195 4 139 4 59 4 22-46 18-125c-6-104 99-153 187-111 19 9 31 26 39 46" id="aQ"/><path fill="#494949" d="M140-251c81 0 123 46 123 126C263-53 228-8 163 1c7 30 30 48 69 40v23c-55 16-95-15-103-61C56-3 17-48 17-125c0-80 42-126 123-126zm0 227c63 0 89-41 89-101s-29-99-89-99c-61 0-89 39-89 99S79-25 140-24" id="aR"/><path fill="#494949" d="M33 0v-38h34V0H33" id="aS"/><path fill="#494949" d="M145-31C134-9 116 4 85 4 32 4 16-35 15-94c0-59 17-99 70-100 32-1 48 14 60 33 0-11-1-24 2-32h30l-1 268h-32zM93-21c41 0 51-33 51-76s-8-73-50-73c-40 0-46 35-46 75s5 74 45 74" id="aT"/><g id="i"><use transform="matrix(0.05,0,0,0.05,0,0)" xlink:href="#aQ"/><use transform="matrix(0.05,0,0,0.05,12.950000000000001,0)" xlink:href="#aC"/><use transform="matrix(0.05,0,0,0.05,23.900000000000002,0)" xlink:href="#au"/><use transform="matrix(0.05,0,0,0.05,35.900000000000006,0)" xlink:href="#aR"/><use transform="matrix(0.05,0,0,0.05,49.900000000000006,0)" xlink:href="#aM"/><use transform="matrix(0.05,0,0,0.05,59.900000000000006,0)" xlink:href="#ap"/><use transform="matrix(0.05,0,0,0.05,69.9,0)" xlink:href="#aM"/><use transform="matrix(0.05,0,0,0.05,79.9,0)" xlink:href="#ap"/><use transform="matrix(0.05,0,0,0.05,89.9,0)" xlink:href="#aS"/><use transform="matrix(0.05,0,0,0.05,94.9,0)" xlink:href="#ap"/><use transform="matrix(0.05,0,0,0.05,104.9,0)" xlink:href="#av"/><use transform="matrix(0.05,0,0,0.05,114.9,0)" xlink:href="#aT"/><use transform="matrix(0.05,0,0,0.05,124.9,0)" xlink:href="#aM"/><use transform="matrix(0.05,0,0,0.05,134.9,0)" xlink:href="#ap"/><use transform="matrix(0.05,0,0,0.05,144.9,0)" xlink:href="#aM"/><use transform="matrix(0.05,0,0,0.05,154.9,0)" xlink:href="#ap"/><use transform="matrix(0.05,0,0,0.05,164.9,0)" xlink:href="#aB"/></g><path fill="#494949" d="M63-220v92h138v28H63V0H30v-248h175v28H63" id="aU"/><g id="j"><use transform="matrix(0.05,0,0,0.05,0,0)" xlink:href="#aO"/><use transform="matrix(0.05,0,0,0.05,10,0)" xlink:href="#ap"/><use transform="matrix(0.05,0,0,0.05,20,0)" xlink:href="#aF"/><use transform="matrix(0.05,0,0,0.05,25,0)" xlink:href="#an"/><use transform="matrix(0.05,0,0,0.05,37,0)" xlink:href="#ao"/><use transform="matrix(0.05,0,0,0.05,42.95,0)" xlink:href="#az"/><use transform="matrix(0.05,0,0,0.05,52.95,0)" xlink:href="#aI"/><use transform="matrix(0.05,0,0,0.05,61.95,0)" xlink:href="#ap"/><use transform="matrix(0.05,0,0,0.05,71.95,0)" xlink:href="#aD"/><use transform="matrix(0.05,0,0,0.05,80.95,0)" xlink:href="#aD"/><use transform="matrix(0.05,0,0,0.05,89.95,0)" xlink:href="#aE"/><use transform="matrix(0.05,0,0,0.05,93.9,0)" xlink:href="#av"/><use transform="matrix(0.05,0,0,0.05,103.9,0)" xlink:href="#aO"/><use transform="matrix(0.05,0,0,0.05,113.9,0)" xlink:href="#aQ"/><use transform="matrix(0.05,0,0,0.05,126.85000000000001,0)" xlink:href="#ap"/><use transform="matrix(0.05,0,0,0.05,136.85000000000002,0)" xlink:href="#av"/><use transform="matrix(0.05,0,0,0.05,146.85000000000002,0)" xlink:href="#aF"/><use transform="matrix(0.05,0,0,0.05,151.85000000000002,0)" xlink:href="#ap"/><use transform="matrix(0.05,0,0,0.05,161.85000000000002,0)" xlink:href="#ao"/><use transform="matrix(0.05,0,0,0.05,167.8,0)" xlink:href="#aU"/><use transform="matrix(0.05,0,0,0.05,178.75,0)" xlink:href="#az"/><use transform="matrix(0.05,0,0,0.05,188.75,0)" xlink:href="#ao"/><use transform="matrix(0.05,0,0,0.05,194.7,0)" xlink:href="#aC"/><use transform="matrix(0.05,0,0,0.05,204.99999999999997,0)" xlink:href="#ao"/><use transform="matrix(0.05,0,0,0.05,210.94999999999996,0)" xlink:href="#aq"/><use transform="matrix(0.05,0,0,0.05,220.94999999999996,0)" xlink:href="#av"/><use transform="matrix(0.05,0,0,0.05,230.94999999999996,0)" xlink:href="#aD"/><use transform="matrix(0.05,0,0,0.05,239.94999999999996,0)" xlink:href="#ar"/><use transform="matrix(0.05,0,0,0.05,254.89999999999998,0)" xlink:href="#aE"/><use transform="matrix(0.05,0,0,0.05,258.84999999999997,0)" xlink:href="#aD"/><use transform="matrix(0.05,0,0,0.05,267.84999999999997,0)" xlink:href="#aD"/><use transform="matrix(0.05,0,0,0.05,276.84999999999997,0)" xlink:href="#aE"/><use transform="matrix(0.05,0,0,0.05,280.79999999999995,0)" xlink:href="#az"/><use transform="matrix(0.05,0,0,0.05,290.79999999999995,0)" xlink:href="#av"/><use transform="matrix(0.05,0,0,0.05,300.79999999999995,0)" xlink:href="#aB"/><use transform="matrix(0.05,0,0,0.05,306.74999999999994,0)" xlink:href="#aN"/></g><path fill="#494949" d="M175 0L67-191c6 58 2 128 3 191H24v-248h59L193-55c-6-58-2-129-3-193h46V0h-61" id="aV"/><path fill="#494949" d="M110-194c64 0 96 36 96 99 0 64-35 99-97 99-61 0-95-36-95-99 0-62 34-99 96-99zm-1 164c35 0 45-28 45-65 0-40-10-65-43-65-34 0-45 26-45 65 0 36 10 65 43 65" id="aW"/><g id="k"><use transform="matrix(0.05,0,0,0.05,0,0)" xlink:href="#aV"/><use transform="matrix(0.05,0,0,0.05,12.950000000000001,0)" xlink:href="#aW"/></g><g id="l"><use transform="matrix(0.05,0,0,0.05,0,0)" xlink:href="#ao"/><use transform="matrix(0.05,0,0,0.05,5.95,0)" xlink:href="#ap"/><use transform="matrix(0.05,0,0,0.05,15.949999999999998,0)" xlink:href="#aF"/><use transform="matrix(0.05,0,0,0.05,20.95,0)" xlink:href="#aM"/><use transform="matrix(0.05,0,0,0.05,30.950000000000003,0)" xlink:href="#ao"/><use transform="matrix(0.05,0,0,0.05,36.9,0)" xlink:href="#av"/></g><path fill="#494949" d="M101-251c82-7 93 87 43 132L82-64C71-53 59-42 53-27h129V0H18c2-99 128-94 128-182 0-28-16-43-45-43s-46 15-49 41l-32-3c6-41 34-60 81-64" id="aX"/><path fill="#494949" d="M54-142c48-35 137-8 131 61C196 18 31 33 14-55l32-4c7 23 22 37 52 37 35-1 51-22 54-58 4-55-73-65-99-34H22l8-134h141v27H59" id="aY"/><g id="m"><use transform="matrix(0.05,0,0,0.05,0,0)" xlink:href="#aX"/><use transform="matrix(0.05,0,0,0.05,10,0)" xlink:href="#aY"/><use transform="matrix(0.05,0,0,0.05,20,0)" xlink:href="#aY"/></g><g id="n"><use transform="matrix(0.05,0,0,0.05,0,0)" xlink:href="#aH"/><use transform="matrix(0.05,0,0,0.05,12.950000000000001,0)" xlink:href="#ap"/><use transform="matrix(0.05,0,0,0.05,22.950000000000003,0)" xlink:href="#at"/><use transform="matrix(0.05,0,0,0.05,26.900000000000002,0)" xlink:href="#aq"/><use transform="matrix(0.05,0,0,0.05,36.900000000000006,0)" xlink:href="#aK"/><use transform="matrix(0.05,0,0,0.05,45.900000000000006,0)" xlink:href="#ap"/><use transform="matrix(0.05,0,0,0.05,55.900000000000006,0)" xlink:href="#ao"/><use transform="matrix(0.05,0,0,0.05,61.85,0)" xlink:href="#aG"/><use transform="matrix(0.05,0,0,0.05,73.85000000000001,0)" xlink:href="#aw"/><use transform="matrix(0.05,0,0,0.05,83.85000000000001,0)" xlink:href="#aw"/><use transform="matrix(0.05,0,0,0.05,93.85000000000001,0)" xlink:href="#ao"/><use transform="matrix(0.05,0,0,0.05,99.80000000000001,0)" xlink:href="#ap"/><use transform="matrix(0.05,0,0,0.05,109.80000000000001,0)" xlink:href="#aD"/><use transform="matrix(0.05,0,0,0.05,118.80000000000001,0)" xlink:href="#aD"/></g><path fill="#494949" d="M18-150v-26h174v26H18zm0 90v-26h174v26H18" id="aZ"/><g id="o"><use transform="matrix(0.05,0,0,0.05,0,0)" xlink:href="#aZ"/><use transform="matrix(0.05,0,0,0.05,10.5,0)" xlink:href="#aZ"/></g><path fill="#494949" d="M101-251c68 0 85 55 85 127S166 4 100 4C33 4 14-52 14-124c0-73 17-127 87-127zm-1 229c47 0 54-49 54-102s-4-102-53-102c-51 0-55 48-55 102 0 53 5 102 54 102" id="ba"/><use transform="matrix(0.05,0,0,0.05,0,0)" xlink:href="#ba" id="p"/><path fill="#494949" d="M137-103V0h-34v-103L8-248h37l75 118 75-118h37" id="bb"/><g id="q"><use transform="matrix(0.05,0,0,0.05,0,0)" xlink:href="#bb"/><use transform="matrix(0.05,0,0,0.05,10.35,0)" xlink:href="#ap"/><use transform="matrix(0.05,0,0,0.05,20.35,0)" xlink:href="#aD"/></g><path fill="#c92d39" d="M185-189c-5-48-123-54-124 2 14 75 158 14 163 119 3 78-121 87-175 55-17-10-28-26-33-46l33-7c5 56 141 63 141-1 0-78-155-14-162-118-5-82 145-84 179-34 5 7 8 16 11 25" id="bc"/><path fill="#c92d39" d="M190 0L58-211 59 0H30v-248h39L202-35l-2-213h31V0h-41" id="bd"/><path fill="#c92d39" d="M27 0v-27h64v-190l-56 39v-29l58-41h29v221h61V0H27" id="be"/><g id="r"><use transform="matrix(0.05,0,0,0.05,0,0)" xlink:href="#bc"/><use transform="matrix(0.05,0,0,0.05,12,0)" xlink:href="#bd"/><use transform="matrix(0.05,0,0,0.05,24.950000000000003,0)" xlink:href="#be"/></g><path fill="#c92d39" d="M101-251c82-7 93 87 43 132L82-64C71-53 59-42 53-27h129V0H18c2-99 128-94 128-182 0-28-16-43-45-43s-46 15-49 41l-32-3c6-41 34-60 81-64" id="bf"/><g id="s"><use transform="matrix(0.05,0,0,0.05,0,0)" xlink:href="#bc"/><use transform="matrix(0.05,0,0,0.05,12,0)" xlink:href="#bd"/><use transform="matrix(0.05,0,0,0.05,24.950000000000003,0)" xlink:href="#bf"/></g><path fill="#c92d39" d="M126-127c33 6 58 20 58 59 0 88-139 92-164 29-3-8-5-16-6-25l32-3c6 27 21 44 54 44 32 0 52-15 52-46 0-38-36-46-79-43v-28c39 1 72-4 72-42 0-27-17-43-46-43-28 0-47 15-49 41l-32-3c6-42 35-63 81-64 48-1 79 21 79 65 0 36-21 52-52 59" id="bg"/><g id="t"><use transform="matrix(0.05,0,0,0.05,0,0)" xlink:href="#bc"/><use transform="matrix(0.05,0,0,0.05,12,0)" xlink:href="#bd"/><use transform="matrix(0.05,0,0,0.05,24.950000000000003,0)" xlink:href="#bg"/></g><g id="u"><use transform="matrix(0.05,0,0,0.05,0,0)" xlink:href="#an"/><use transform="matrix(0.05,0,0,0.05,12,0)" xlink:href="#ao"/><use transform="matrix(0.05,0,0,0.05,17.95,0)" xlink:href="#ap"/><use transform="matrix(0.05,0,0,0.05,27.950000000000003,0)" xlink:href="#aq"/><use transform="matrix(0.05,0,0,0.05,37.95,0)" xlink:href="#ar"/><use transform="matrix(0.05,0,0,0.05,52.900000000000006,0)" xlink:href="#as"/><use transform="matrix(0.05,0,0,0.05,62.900000000000006,0)" xlink:href="#at"/><use transform="matrix(0.05,0,0,0.05,66.85000000000001,0)" xlink:href="#ap"/><use transform="matrix(0.05,0,0,0.05,76.85000000000001,0)" xlink:href="#au"/><use transform="matrix(0.05,0,0,0.05,88.85000000000001,0)" xlink:href="#ap"/><use transform="matrix(0.05,0,0,0.05,98.85000000000001,0)" xlink:href="#av"/><use transform="matrix(0.05,0,0,0.05,108.85000000000001,0)" xlink:href="#aw"/><use transform="matrix(0.05,0,0,0.05,118.85000000000001,0)" xlink:href="#ap"/><use transform="matrix(0.05,0,0,0.05,128.85000000000002,0)" xlink:href="#ao"/><use transform="matrix(0.05,0,0,0.05,134.8,0)" xlink:href="#aX"/><use transform="matrix(0.05,0,0,0.05,144.8,0)" xlink:href="#ay"/><use transform="matrix(0.05,0,0,0.05,154.8,0)" xlink:href="#az"/><use transform="matrix(0.05,0,0,0.05,164.8,0)" xlink:href="#aA"/></g><path fill="#494949" d="M190 0L58-211 59 0H30v-248h39L202-35l-2-213h31V0h-41" id="bh"/><g id="v"><use transform="matrix(0.05,0,0,0.05,0,0)" xlink:href="#bh"/><use transform="matrix(0.05,0,0,0.05,12.950000000000001,0)" xlink:href="#az"/></g><path fill="#494949" d="M143 0L79-87 56-68V0H24v-261h32v163l83-92h37l-77 82L181 0h-38" id="bi"/><g id="w"><use transform="matrix(0.05,0,0,0.05,0,0)" xlink:href="#aQ"/><use transform="matrix(0.05,0,0,0.05,12.950000000000001,0)" xlink:href="#ay"/><use transform="matrix(0.05,0,0,0.05,22.950000000000003,0)" xlink:href="#ap"/><use transform="matrix(0.05,0,0,0.05,32.95,0)" xlink:href="#aI"/><use transform="matrix(0.05,0,0,0.05,41.95,0)" xlink:href="#bi"/><use transform="matrix(0.05,0,0,0.05,50.95,0)" xlink:href="#aD"/></g><path fill="#494949" d="M140-251c81 0 123 46 123 126C263-46 219 4 140 4 59 4 17-45 17-125s42-126 123-126zm0 227c63 0 89-41 89-101s-29-99-89-99c-61 0-89 39-89 99S79-25 140-24" id="bj"/><path fill="#494949" d="M160-131c35 5 61 23 61 61C221 17 115-2 30 0v-248c76 3 177-17 177 60 0 33-19 50-47 57zm-97-11c50-1 110 9 110-42 0-47-63-36-110-37v79zm0 115c55-2 124 14 124-45 0-56-70-42-124-44v89" id="bk"/><g id="x"><use transform="matrix(0.05,0,0,0.05,0,0)" xlink:href="#bj"/><use transform="matrix(0.05,0,0,0.05,14,0)" xlink:href="#aI"/><use transform="matrix(0.05,0,0,0.05,23,0)" xlink:href="#aI"/><use transform="matrix(0.05,0,0,0.05,32,0)" xlink:href="#aM"/><use transform="matrix(0.05,0,0,0.05,42,0)" xlink:href="#aA"/><use transform="matrix(0.05,0,0,0.05,52,0)" xlink:href="#aq"/><use transform="matrix(0.05,0,0,0.05,62,0)" xlink:href="#av"/><use transform="matrix(0.05,0,0,0.05,72,0)" xlink:href="#aI"/><use transform="matrix(0.05,0,0,0.05,81,0)" xlink:href="#aK"/><use transform="matrix(0.05,0,0,0.05,90,0)" xlink:href="#bk"/><use transform="matrix(0.05,0,0,0.05,102,0)" xlink:href="#aE"/><use transform="matrix(0.05,0,0,0.05,105.95,0)" xlink:href="#aF"/></g><g id="y"><use transform="matrix(0.05,0,0,0.05,0,0)" xlink:href="#az"/><use transform="matrix(0.05,0,0,0.05,10,0)" xlink:href="#ao"/></g><g id="z"><use transform="matrix(0.05,0,0,0.05,0,0)" xlink:href="#aQ"/><use transform="matrix(0.05,0,0,0.05,12.950000000000001,0)" xlink:href="#az"/><use transform="matrix(0.05,0,0,0.05,22.950000000000003,0)" xlink:href="#aM"/><use transform="matrix(0.05,0,0,0.05,32.95,0)" xlink:href="#av"/><use transform="matrix(0.05,0,0,0.05,42.95,0)" xlink:href="#aF"/><use transform="matrix(0.05,0,0,0.05,47.95,0)" xlink:href="#bk"/><use transform="matrix(0.05,0,0,0.05,59.95,0)" xlink:href="#ap"/><use transform="matrix(0.05,0,0,0.05,69.95,0)" xlink:href="#aq"/><use transform="matrix(0.05,0,0,0.05,79.95,0)" xlink:href="#aI"/><use transform="matrix(0.05,0,0,0.05,88.95,0)" xlink:href="#az"/><use transform="matrix(0.05,0,0,0.05,98.95,0)" xlink:href="#av"/><use transform="matrix(0.05,0,0,0.05,108.95,0)" xlink:href="#aD"/></g><path fill="#494949" d="M18-100v-36l175-74v27L42-118l151 64v27" id="bl"/><use transform="matrix(0.05,0,0,0.05,0,0)" xlink:href="#bl" id="A"/><path fill="#494949" d="M240 0l2-218c-23 76-54 145-80 218h-23L58-218 59 0H30v-248h44l77 211c21-75 51-140 76-211h43V0h-30" id="bm"/><path fill="#494949" d="M141 0L90-78 38 0H4l68-98-65-92h35l48 74 47-74h35l-64 92 68 98h-35" id="bn"/><g id="B"><use transform="matrix(0.05,0,0,0.05,0,0)" xlink:href="#bm"/><use transform="matrix(0.05,0,0,0.05,14.950000000000001,0)" xlink:href="#aq"/><use transform="matrix(0.05,0,0,0.05,24.950000000000003,0)" xlink:href="#bn"/><use transform="matrix(0.05,0,0,0.05,33.95,0)" xlink:href="#bk"/><use transform="matrix(0.05,0,0,0.05,45.95,0)" xlink:href="#ap"/><use transform="matrix(0.05,0,0,0.05,55.95,0)" xlink:href="#aq"/><use transform="matrix(0.05,0,0,0.05,65.95,0)" xlink:href="#aI"/><use transform="matrix(0.05,0,0,0.05,74.95,0)" xlink:href="#az"/><use transform="matrix(0.05,0,0,0.05,84.95,0)" xlink:href="#av"/><use transform="matrix(0.05,0,0,0.05,94.95,0)" xlink:href="#aD"/></g><g id="C"><use transform="matrix(0.05,0,0,0.05,0,0)" xlink:href="#aQ"/><use transform="matrix(0.05,0,0,0.05,12.950000000000001,0)" xlink:href="#aC"/><use transform="matrix(0.05,0,0,0.05,23.900000000000002,0)" xlink:href="#au"/><use transform="matrix(0.05,0,0,0.05,35.900000000000006,0)" xlink:href="#au"/><use transform="matrix(0.05,0,0,0.05,47.900000000000006,0)" xlink:href="#ap"/><use transform="matrix(0.05,0,0,0.05,57.900000000000006,0)" xlink:href="#av"/><use transform="matrix(0.05,0,0,0.05,67.9,0)" xlink:href="#aw"/><use transform="matrix(0.05,0,0,0.05,77.9,0)" xlink:href="#ax"/><use transform="matrix(0.05,0,0,0.05,87.9,0)" xlink:href="#ay"/><use transform="matrix(0.05,0,0,0.05,97.9,0)" xlink:href="#az"/><use transform="matrix(0.05,0,0,0.05,107.9,0)" xlink:href="#aA"/></g><g id="D"><use transform="matrix(0.05,0,0,0.05,0,0)" xlink:href="#aB"/><use transform="matrix(0.05,0,0,0.05,5.95,0)" xlink:href="#aC"/><use transform="matrix(0.05,0,0,0.05,16.25,0)" xlink:href="#ao"/><use transform="matrix(0.05,0,0,0.05,22.2,0)" xlink:href="#aq"/><use transform="matrix(0.05,0,0,0.05,32.2,0)" xlink:href="#av"/><use transform="matrix(0.05,0,0,0.05,42.2,0)" xlink:href="#aD"/><use transform="matrix(0.05,0,0,0.05,51.2,0)" xlink:href="#ar"/><use transform="matrix(0.05,0,0,0.05,66.15,0)" xlink:href="#aE"/><use transform="matrix(0.05,0,0,0.05,70.10000000000001,0)" xlink:href="#aF"/><use transform="matrix(0.05,0,0,0.05,75.10000000000001,0)" xlink:href="#aF"/><use transform="matrix(0.05,0,0,0.05,80.10000000000001,0)" xlink:href="#ap"/><use transform="matrix(0.05,0,0,0.05,90.10000000000001,0)" xlink:href="#ao"/></g><g id="E"><use transform="matrix(0.05,0,0,0.05,0,0)" xlink:href="#aQ"/><use transform="matrix(0.05,0,0,0.05,12.950000000000001,0)" xlink:href="#aC"/><use transform="matrix(0.05,0,0,0.05,23.900000000000002,0)" xlink:href="#au"/><use transform="matrix(0.05,0,0,0.05,35.900000000000006,0)" xlink:href="#au"/><use transform="matrix(0.05,0,0,0.05,47.900000000000006,0)" xlink:href="#ap"/><use transform="matrix(0.05,0,0,0.05,57.900000000000006,0)" xlink:href="#av"/><use transform="matrix(0.05,0,0,0.05,67.9,0)" xlink:href="#aw"/><use transform="matrix(0.05,0,0,0.05,77.9,0)" xlink:href="#aX"/><use transform="matrix(0.05,0,0,0.05,87.9,0)" xlink:href="#ay"/><use transform="matrix(0.05,0,0,0.05,97.9,0)" xlink:href="#az"/><use transform="matrix(0.05,0,0,0.05,107.9,0)" xlink:href="#aA"/></g><g id="F"><use transform="matrix(0.05,0,0,0.05,0,0)" xlink:href="#aC"/><use transform="matrix(0.05,0,0,0.05,10.3,0)" xlink:href="#ao"/><use transform="matrix(0.05,0,0,0.05,16.25,0)" xlink:href="#aE"/><use transform="matrix(0.05,0,0,0.05,20.2,0)" xlink:href="#aO"/><use transform="matrix(0.05,0,0,0.05,30.200000000000003,0)" xlink:href="#aO"/><use transform="matrix(0.05,0,0,0.05,40.2,0)" xlink:href="#ap"/><use transform="matrix(0.05,0,0,0.05,50.2,0)" xlink:href="#ao"/><use transform="matrix(0.05,0,0,0.05,56.150000000000006,0)" xlink:href="#aD"/></g><g id="G"><use transform="matrix(0.05,0,0,0.05,0,0)" xlink:href="#aG"/><use transform="matrix(0.05,0,0,0.05,12,0)" xlink:href="#bm"/><use transform="matrix(0.05,0,0,0.05,26.950000000000003,0)" xlink:href="#au"/><use transform="matrix(0.05,0,0,0.05,38.95,0)" xlink:href="#av"/><use transform="matrix(0.05,0,0,0.05,48.95,0)" xlink:href="#az"/><use transform="matrix(0.05,0,0,0.05,58.95,0)" xlink:href="#aA"/><use transform="matrix(0.05,0,0,0.05,68.95,0)" xlink:href="#aA"/><use transform="matrix(0.05,0,0,0.05,78.95,0)" xlink:href="#aE"/><use transform="matrix(0.05,0,0,0.05,82.9,0)" xlink:href="#av"/><use transform="matrix(0.05,0,0,0.05,92.9,0)" xlink:href="#aO"/><use transform="matrix(0.05,0,0,0.05,102.9,0)" xlink:href="#aH"/><use transform="matrix(0.05,0,0,0.05,115.85000000000001,0)" xlink:href="#ap"/><use transform="matrix(0.05,0,0,0.05,125.85000000000001,0)" xlink:href="#aI"/><use transform="matrix(0.05,0,0,0.05,134.85000000000002,0)" xlink:href="#ap"/><use transform="matrix(0.05,0,0,0.05,144.85000000000002,0)" xlink:href="#aE"/><use transform="matrix(0.05,0,0,0.05,148.8,0)" xlink:href="#aJ"/><use transform="matrix(0.05,0,0,0.05,157.8,0)" xlink:href="#ap"/><use transform="matrix(0.05,0,0,0.05,167.8,0)" xlink:href="#ao"/><use transform="matrix(0.05,0,0,0.05,173.75,0)" xlink:href="#aD"/></g><g id="H"><use transform="matrix(0.05,0,0,0.05,0,0)" xlink:href="#aG"/><use transform="matrix(0.05,0,0,0.05,12,0)" xlink:href="#aI"/><use transform="matrix(0.05,0,0,0.05,21,0)" xlink:href="#aF"/><use transform="matrix(0.05,0,0,0.05,26,0)" xlink:href="#aM"/><use transform="matrix(0.05,0,0,0.05,36,0)" xlink:href="#aq"/><use transform="matrix(0.05,0,0,0.05,46,0)" xlink:href="#at"/></g><g id="I"><use transform="matrix(0.05,0,0,0.05,0,0)" xlink:href="#aP"/><use transform="matrix(0.05,0,0,0.05,5,0)" xlink:href="#av"/><use transform="matrix(0.05,0,0,0.05,15,0)" xlink:href="#aF"/><use transform="matrix(0.05,0,0,0.05,20,0)" xlink:href="#ap"/><use transform="matrix(0.05,0,0,0.05,30,0)" xlink:href="#av"/><use transform="matrix(0.05,0,0,0.05,40,0)" xlink:href="#aw"/><use transform="matrix(0.05,0,0,0.05,50,0)" xlink:href="#ap"/><use transform="matrix(0.05,0,0,0.05,60,0)" xlink:href="#aw"/></g><g id="J"><use transform="matrix(0.05,0,0,0.05,0,0)" xlink:href="#aH"/><use transform="matrix(0.05,0,0,0.05,12.950000000000001,0)" xlink:href="#ap"/><use transform="matrix(0.05,0,0,0.05,22.950000000000003,0)" xlink:href="#aI"/><use transform="matrix(0.05,0,0,0.05,31.950000000000003,0)" xlink:href="#ap"/><use transform="matrix(0.05,0,0,0.05,41.95,0)" xlink:href="#aE"/><use transform="matrix(0.05,0,0,0.05,45.900000000000006,0)" xlink:href="#aA"/><use transform="matrix(0.05,0,0,0.05,55.900000000000006,0)" xlink:href="#aE"/><use transform="matrix(0.05,0,0,0.05,59.85,0)" xlink:href="#ap"/><use transform="matrix(0.05,0,0,0.05,69.85000000000001,0)" xlink:href="#av"/><use transform="matrix(0.05,0,0,0.05,79.85000000000001,0)" xlink:href="#aF"/></g><g id="K"><use transform="matrix(0.05,0,0,0.05,0,0)" xlink:href="#au"/><use transform="matrix(0.05,0,0,0.05,12,0)" xlink:href="#aF"/><use transform="matrix(0.05,0,0,0.05,17,0)" xlink:href="#aq"/><use transform="matrix(0.05,0,0,0.05,27,0)" xlink:href="#ao"/><use transform="matrix(0.05,0,0,0.05,32.95,0)" xlink:href="#aF"/><use transform="matrix(0.05,0,0,0.05,37.95,0)" xlink:href="#aD"/></g><g id="L"><use transform="matrix(0.05,0,0,0.05,0,0)" xlink:href="#aL"/><use transform="matrix(0.05,0,0,0.05,12.950000000000001,0)" xlink:href="#aG"/><use transform="matrix(0.05,0,0,0.05,23.6,0)" xlink:href="#aC"/><use transform="matrix(0.05,0,0,0.05,33.2,0)" xlink:href="#aG"/></g><g id="M"><use transform="matrix(0.05,0,0,0.05,0,0)" xlink:href="#aC"/><use transform="matrix(0.05,0,0,0.05,10.950000000000001,0)" xlink:href="#aH"/><use transform="matrix(0.05,0,0,0.05,23.900000000000002,0)" xlink:href="#aG"/><use transform="matrix(0.05,0,0,0.05,35.900000000000006,0)" xlink:href="#bh"/><use transform="matrix(0.05,0,0,0.05,48.85000000000001,0)" xlink:href="#au"/><use transform="matrix(0.05,0,0,0.05,60.85,0)" xlink:href="#bm"/><use transform="matrix(0.05,0,0,0.05,75.80000000000001,0)" xlink:href="#aP"/><use transform="matrix(0.05,0,0,0.05,80.80000000000001,0)" xlink:href="#au"/><use transform="matrix(0.05,0,0,0.05,92.80000000000001,0)" xlink:href="#au"/><use transform="matrix(0.05,0,0,0.05,104.80000000000001,0)" xlink:href="#aP"/><use transform="matrix(0.05,0,0,0.05,109.80000000000001,0)" xlink:href="#bj"/><use transform="matrix(0.05,0,0,0.05,123.80000000000001,0)" xlink:href="#bh"/></g><path fill="#494949" d="M232-93c-1 65-40 97-104 97C67 4 28-28 28-90v-158h33c8 89-33 224 67 224 102 0 64-133 71-224h33v155" id="bo"/><g id="N"><use transform="matrix(0.05,0,0,0.05,0,0)" xlink:href="#bo"/><use transform="matrix(0.05,0,0,0.05,12.950000000000001,0)" xlink:href="#aA"/><use transform="matrix(0.05,0,0,0.05,22.950000000000003,0)" xlink:href="#aw"/><use transform="matrix(0.05,0,0,0.05,32.95,0)" xlink:href="#aq"/><use transform="matrix(0.05,0,0,0.05,42.95,0)" xlink:href="#aF"/><use transform="matrix(0.05,0,0,0.05,47.95,0)" xlink:href="#ap"/><use transform="matrix(0.05,0,0,0.05,57.95,0)" xlink:href="#bk"/><use transform="matrix(0.05,0,0,0.05,69.95,0)" xlink:href="#aM"/><use transform="matrix(0.05,0,0,0.05,79.95,0)" xlink:href="#aD"/><use transform="matrix(0.05,0,0,0.05,88.95,0)" xlink:href="#aK"/><use transform="matrix(0.05,0,0,0.05,97.95,0)" xlink:href="#aH"/><use transform="matrix(0.05,0,0,0.05,110.9,0)" xlink:href="#ap"/><use transform="matrix(0.05,0,0,0.05,120.9,0)" xlink:href="#at"/><use transform="matrix(0.05,0,0,0.05,124.85000000000001,0)" xlink:href="#aq"/><use transform="matrix(0.05,0,0,0.05,134.85000000000002,0)" xlink:href="#aK"/><use transform="matrix(0.05,0,0,0.05,143.85000000000002,0)" xlink:href="#ap"/><use transform="matrix(0.05,0,0,0.05,153.85000000000002,0)" xlink:href="#ao"/><use transform="matrix(0.05,0,0,0.05,159.8,0)" xlink:href="#aD"/><use transform="matrix(0.05,0,0,0.05,168.8,0)" xlink:href="#aG"/><use transform="matrix(0.05,0,0,0.05,180.8,0)" xlink:href="#av"/><use transform="matrix(0.05,0,0,0.05,190.8,0)" xlink:href="#aw"/><use transform="matrix(0.05,0,0,0.05,200.8,0)" xlink:href="#an"/><use transform="matrix(0.05,0,0,0.05,212.8,0)" xlink:href="#ao"/><use transform="matrix(0.05,0,0,0.05,218.75,0)" xlink:href="#az"/><use transform="matrix(0.05,0,0,0.05,228.75,0)" xlink:href="#aI"/><use transform="matrix(0.05,0,0,0.05,237.75,0)" xlink:href="#ap"/><use transform="matrix(0.05,0,0,0.05,247.75,0)" xlink:href="#aD"/><use transform="matrix(0.05,0,0,0.05,256.75,0)" xlink:href="#aD"/><use transform="matrix(0.05,0,0,0.05,265.75,0)" xlink:href="#aE"/><use transform="matrix(0.05,0,0,0.05,269.7,0)" xlink:href="#av"/><use transform="matrix(0.05,0,0,0.05,279.7,0)" xlink:href="#aO"/><use transform="matrix(0.05,0,0,0.05,289.7,0)" xlink:href="#aQ"/><use transform="matrix(0.05,0,0,0.05,302.65,0)" xlink:href="#ap"/><use transform="matrix(0.05,0,0,0.05,312.65,0)" xlink:href="#av"/><use transform="matrix(0.05,0,0,0.05,322.65,0)" xlink:href="#aF"/><use transform="matrix(0.05,0,0,0.05,327.65,0)" xlink:href="#ap"/><use transform="matrix(0.05,0,0,0.05,337.65,0)" xlink:href="#ao"/><use transform="matrix(0.05,0,0,0.05,343.59999999999997,0)" xlink:href="#aD"/><use transform="matrix(0.05,0,0,0.05,352.59999999999997,0)" xlink:href="#aB"/></g><path fill="#494949" d="M-5 72V49h209v23H-5" id="bp"/><path fill="#494949" d="M68-38c1 34 0 65-14 84H32c9-13 17-26 17-46H33v-38h35" id="bq"/><g id="O"><use transform="matrix(0.05,0,0,0.05,0,0)" xlink:href="#an"/><use transform="matrix(0.05,0,0,0.05,12,0)" xlink:href="#aQ"/><use transform="matrix(0.05,0,0,0.05,24.950000000000003,0)" xlink:href="#bp"/><use transform="matrix(0.05,0,0,0.05,34.95,0)" xlink:href="#aP"/><use transform="matrix(0.05,0,0,0.05,39.95,0)" xlink:href="#aL"/><use transform="matrix(0.05,0,0,0.05,52.900000000000006,0)" xlink:href="#bq"/></g><g id="P"><use transform="matrix(0.05,0,0,0.05,0,0)" xlink:href="#aH"/><use transform="matrix(0.05,0,0,0.05,12.950000000000001,0)" xlink:href="#ap"/><use transform="matrix(0.05,0,0,0.05,22.950000000000003,0)" xlink:href="#at"/><use transform="matrix(0.05,0,0,0.05,26.900000000000002,0)" xlink:href="#aq"/><use transform="matrix(0.05,0,0,0.05,36.900000000000006,0)" xlink:href="#aK"/><use transform="matrix(0.05,0,0,0.05,45.900000000000006,0)" xlink:href="#ap"/><use transform="matrix(0.05,0,0,0.05,55.900000000000006,0)" xlink:href="#ao"/><use transform="matrix(0.05,0,0,0.05,61.85,0)" xlink:href="#bp"/><use transform="matrix(0.05,0,0,0.05,71.85000000000001,0)" xlink:href="#aP"/><use transform="matrix(0.05,0,0,0.05,76.85000000000001,0)" xlink:href="#aL"/><use transform="matrix(0.05,0,0,0.05,89.80000000000001,0)" xlink:href="#bq"/></g><g id="Q"><use transform="matrix(0.05,0,0,0.05,0,0)" xlink:href="#aL"/><use transform="matrix(0.05,0,0,0.05,12.950000000000001,0)" xlink:href="#aM"/><use transform="matrix(0.05,0,0,0.05,22.950000000000003,0)" xlink:href="#ao"/><use transform="matrix(0.05,0,0,0.05,28.900000000000002,0)" xlink:href="#aq"/><use transform="matrix(0.05,0,0,0.05,38.900000000000006,0)" xlink:href="#aF"/><use transform="matrix(0.05,0,0,0.05,43.900000000000006,0)" xlink:href="#aE"/><use transform="matrix(0.05,0,0,0.05,47.85000000000001,0)" xlink:href="#az"/><use transform="matrix(0.05,0,0,0.05,57.85,0)" xlink:href="#av"/><use transform="matrix(0.05,0,0,0.05,67.85000000000001,0)" xlink:href="#aN"/></g><g id="R"><use transform="matrix(0.05,0,0,0.05,0,0)" xlink:href="#au"/><use transform="matrix(0.05,0,0,0.05,12,0)" xlink:href="#ap"/><use transform="matrix(0.05,0,0,0.05,22,0)" xlink:href="#at"/><use transform="matrix(0.05,0,0,0.05,25.950000000000003,0)" xlink:href="#ap"/><use transform="matrix(0.05,0,0,0.05,35.95,0)" xlink:href="#aI"/><use transform="matrix(0.05,0,0,0.05,44.95,0)" xlink:href="#aF"/><use transform="matrix(0.05,0,0,0.05,49.95,0)" xlink:href="#aE"/><use transform="matrix(0.05,0,0,0.05,53.900000000000006,0)" xlink:href="#az"/><use transform="matrix(0.05,0,0,0.05,63.900000000000006,0)" xlink:href="#av"/><use transform="matrix(0.05,0,0,0.05,73.9,0)" xlink:href="#au"/><use transform="matrix(0.05,0,0,0.05,85.9,0)" xlink:href="#az"/><use transform="matrix(0.05,0,0,0.05,95.9,0)" xlink:href="#ao"/><use transform="matrix(0.05,0,0,0.05,101.85000000000001,0)" xlink:href="#aF"/></g><g id="S"><use transform="matrix(0.05,0,0,0.05,0,0)" xlink:href="#aB"/><use transform="matrix(0.05,0,0,0.05,5.95,0)" xlink:href="#bk"/><use transform="matrix(0.05,0,0,0.05,17.95,0)" xlink:href="#aq"/><use transform="matrix(0.05,0,0,0.05,27.950000000000003,0)" xlink:href="#aD"/><use transform="matrix(0.05,0,0,0.05,36.95,0)" xlink:href="#ap"/><use transform="matrix(0.05,0,0,0.05,46.95,0)" xlink:href="#aw"/></g><g id="T"><use transform="matrix(0.05,0,0,0.05,0,0)" xlink:href="#az"/><use transform="matrix(0.05,0,0,0.05,10,0)" xlink:href="#av"/></g><g id="U"><use transform="matrix(0.05,0,0,0.05,0,0)" xlink:href="#bh"/><use transform="matrix(0.05,0,0,0.05,12.950000000000001,0)" xlink:href="#az"/><use transform="matrix(0.05,0,0,0.05,22.950000000000003,0)" xlink:href="#aH"/><use transform="matrix(0.05,0,0,0.05,35.900000000000006,0)" xlink:href="#ap"/><use transform="matrix(0.05,0,0,0.05,45.900000000000006,0)" xlink:href="#at"/><use transform="matrix(0.05,0,0,0.05,49.85000000000001,0)" xlink:href="#aq"/><use transform="matrix(0.05,0,0,0.05,59.85,0)" xlink:href="#aK"/><use transform="matrix(0.05,0,0,0.05,68.85000000000001,0)" xlink:href="#ap"/><use transform="matrix(0.05,0,0,0.05,78.85000000000001,0)" xlink:href="#ao"/></g><g id="V"><use transform="matrix(0.05,0,0,0.05,0,0)" xlink:href="#aq"/><use transform="matrix(0.05,0,0,0.05,10,0)" xlink:href="#av"/><use transform="matrix(0.05,0,0,0.05,20,0)" xlink:href="#aw"/></g><g id="W"><use transform="matrix(0.05,0,0,0.05,0,0)" xlink:href="#bm"/><use transform="matrix(0.05,0,0,0.05,14.950000000000001,0)" xlink:href="#aE"/><use transform="matrix(0.05,0,0,0.05,18.900000000000002,0)" xlink:href="#av"/></g><path fill="#494949" d="M30 0v-248h187v28H63v79h144v27H63v87h162V0H30" id="br"/><path fill="#494949" d="M195 0l-74-108L45 0H8l94-129-87-119h37l69 98 67-98h37l-84 118L233 0h-38" id="bs"/><g id="X"><use transform="matrix(0.05,0,0,0.05,0,0)" xlink:href="#br"/><use transform="matrix(0.05,0,0,0.05,12,0)" xlink:href="#aC"/><use transform="matrix(0.05,0,0,0.05,22.950000000000003,0)" xlink:href="#bs"/></g><g id="Y"><use transform="matrix(0.05,0,0,0.05,0,0)" xlink:href="#aI"/><use transform="matrix(0.05,0,0,0.05,9,0)" xlink:href="#ao"/><use transform="matrix(0.05,0,0,0.05,14.949999999999998,0)" xlink:href="#aE"/><use transform="matrix(0.05,0,0,0.05,18.9,0)" xlink:href="#aF"/><use transform="matrix(0.05,0,0,0.05,23.9,0)" xlink:href="#ap"/><use transform="matrix(0.05,0,0,0.05,33.9,0)" xlink:href="#ao"/><use transform="matrix(0.05,0,0,0.05,39.85,0)" xlink:href="#aE"/><use transform="matrix(0.05,0,0,0.05,43.800000000000004,0)" xlink:href="#az"/><use transform="matrix(0.05,0,0,0.05,53.800000000000004,0)" xlink:href="#av"/><use transform="matrix(0.05,0,0,0.05,63.800000000000004,0)" xlink:href="#aN"/></g><path fill="#494949" d="M101-234c-31-9-42 10-38 44h38v23H63V0H32v-167H5v-23h27c-7-52 17-82 69-68v24" id="bt"/><g id="Z"><use transform="matrix(0.05,0,0,0.05,0,0)" xlink:href="#bj"/><use transform="matrix(0.05,0,0,0.05,14,0)" xlink:href="#bt"/></g><g id="aa"><use transform="matrix(0.05,0,0,0.05,0,0)" xlink:href="#bk"/><use transform="matrix(0.05,0,0,0.05,12,0)" xlink:href="#aM"/><use transform="matrix(0.05,0,0,0.05,22,0)" xlink:href="#aD"/><use transform="matrix(0.05,0,0,0.05,31,0)" xlink:href="#aK"/></g><g id="ab"><use transform="matrix(0.05,0,0,0.05,0,0)" xlink:href="#an"/><use transform="matrix(0.05,0,0,0.05,12,0)" xlink:href="#ao"/><use transform="matrix(0.05,0,0,0.05,17.95,0)" xlink:href="#az"/><use transform="matrix(0.05,0,0,0.05,27.950000000000003,0)" xlink:href="#aI"/><use transform="matrix(0.05,0,0,0.05,36.95,0)" xlink:href="#ap"/><use transform="matrix(0.05,0,0,0.05,46.95,0)" xlink:href="#aD"/><use transform="matrix(0.05,0,0,0.05,55.95,0)" xlink:href="#aD"/><use transform="matrix(0.05,0,0,0.05,64.95,0)" xlink:href="#aE"/><use transform="matrix(0.05,0,0,0.05,68.9,0)" xlink:href="#av"/><use transform="matrix(0.05,0,0,0.05,78.9,0)" xlink:href="#aO"/></g><g id="ac"><use transform="matrix(0.05,0,0,0.05,0,0)" xlink:href="#aQ"/><use transform="matrix(0.05,0,0,0.05,12.950000000000001,0)" xlink:href="#ap"/><use transform="matrix(0.05,0,0,0.05,22.950000000000003,0)" xlink:href="#av"/><use transform="matrix(0.05,0,0,0.05,32.95,0)" xlink:href="#aF"/><use transform="matrix(0.05,0,0,0.05,37.95,0)" xlink:href="#ap"/><use transform="matrix(0.05,0,0,0.05,47.95,0)" xlink:href="#ao"/><use transform="matrix(0.05,0,0,0.05,53.900000000000006,0)" xlink:href="#aD"/><use transform="matrix(0.05,0,0,0.05,62.900000000000006,0)" xlink:href="#bq"/></g><g id="ad"><use transform="matrix(0.05,0,0,0.05,0,0)" xlink:href="#ao"/><use transform="matrix(0.05,0,0,0.05,5.95,0)" xlink:href="#ap"/><use transform="matrix(0.05,0,0,0.05,15.949999999999998,0)" xlink:href="#at"/><use transform="matrix(0.05,0,0,0.05,19.9,0)" xlink:href="#aq"/><use transform="matrix(0.05,0,0,0.05,29.899999999999995,0)" xlink:href="#aK"/><use transform="matrix(0.05,0,0,0.05,38.9,0)" xlink:href="#ap"/><use transform="matrix(0.05,0,0,0.05,48.9,0)" xlink:href="#ao"/><use transform="matrix(0.05,0,0,0.05,54.85,0)" xlink:href="#aD"/></g><g id="ae"><use transform="matrix(0.05,0,0,0.05,0,0)" xlink:href="#aq"/><use transform="matrix(0.05,0,0,0.05,10,0)" xlink:href="#av"/><use transform="matrix(0.05,0,0,0.05,20,0)" xlink:href="#aw"/></g><g id="af"><use transform="matrix(0.05,0,0,0.05,0,0)" xlink:href="#as"/><use transform="matrix(0.05,0,0,0.05,10,0)" xlink:href="#aM"/><use transform="matrix(0.05,0,0,0.05,20,0)" xlink:href="#aD"/><use transform="matrix(0.05,0,0,0.05,29,0)" xlink:href="#aK"/></g><g id="ag"><use transform="matrix(0.05,0,0,0.05,0,0)" xlink:href="#aL"/><use transform="matrix(0.05,0,0,0.05,12.950000000000001,0)" xlink:href="#aM"/><use transform="matrix(0.05,0,0,0.05,22.950000000000003,0)" xlink:href="#ao"/><use transform="matrix(0.05,0,0,0.05,28.900000000000002,0)" xlink:href="#aq"/><use transform="matrix(0.05,0,0,0.05,38.900000000000006,0)" xlink:href="#aF"/><use transform="matrix(0.05,0,0,0.05,43.900000000000006,0)" xlink:href="#aE"/><use transform="matrix(0.05,0,0,0.05,47.85000000000001,0)" xlink:href="#az"/><use transform="matrix(0.05,0,0,0.05,57.85,0)" xlink:href="#av"/></g><g id="ah"><use transform="matrix(0.05,0,0,0.05,0,0)" xlink:href="#bo"/><use transform="matrix(0.05,0,0,0.05,12.950000000000001,0)" xlink:href="#aD"/><use transform="matrix(0.05,0,0,0.05,21.950000000000003,0)" xlink:href="#ap"/><use transform="matrix(0.05,0,0,0.05,31.950000000000003,0)" xlink:href="#aD"/></g><g id="ai"><use transform="matrix(0.05,0,0,0.05,0,0)" xlink:href="#bo"/><use transform="matrix(0.05,0,0,0.05,12.950000000000001,0)" xlink:href="#aA"/><use transform="matrix(0.05,0,0,0.05,22.950000000000003,0)" xlink:href="#aw"/><use transform="matrix(0.05,0,0,0.05,32.95,0)" xlink:href="#aq"/><use transform="matrix(0.05,0,0,0.05,42.95,0)" xlink:href="#aF"/><use transform="matrix(0.05,0,0,0.05,47.95,0)" xlink:href="#ap"/></g><g id="aj"><use transform="matrix(0.05,0,0,0.05,0,0)" xlink:href="#an"/><use transform="matrix(0.05,0,0,0.05,12,0)" xlink:href="#ao"/><use transform="matrix(0.05,0,0,0.05,17.95,0)" xlink:href="#az"/><use transform="matrix(0.05,0,0,0.05,27.950000000000003,0)" xlink:href="#aI"/><use transform="matrix(0.05,0,0,0.05,36.95,0)" xlink:href="#ap"/><use transform="matrix(0.05,0,0,0.05,46.95,0)" xlink:href="#aD"/><use transform="matrix(0.05,0,0,0.05,55.95,0)" xlink:href="#aD"/><use transform="matrix(0.05,0,0,0.05,64.95,0)" xlink:href="#aE"/><use transform="matrix(0.05,0,0,0.05,68.9,0)" xlink:href="#av"/><use transform="matrix(0.05,0,0,0.05,78.9,0)" xlink:href="#aO"/><use transform="matrix(0.05,0,0,0.05,88.9,0)" xlink:href="#aQ"/><use transform="matrix(0.05,0,0,0.05,101.85000000000001,0)" xlink:href="#ap"/><use transform="matrix(0.05,0,0,0.05,111.85000000000001,0)" xlink:href="#av"/><use transform="matrix(0.05,0,0,0.05,121.85000000000001,0)" xlink:href="#aF"/><use transform="matrix(0.05,0,0,0.05,126.85000000000001,0)" xlink:href="#ap"/><use transform="matrix(0.05,0,0,0.05,136.85000000000002,0)" xlink:href="#ao"/></g><path fill="#494949" d="M30 0v-248h33v221h125V0H30" id="bu"/><g id="ak"><use transform="matrix(0.05,0,0,0.05,0,0)" xlink:href="#bu"/><use transform="matrix(0.05,0,0,0.05,10,0)" xlink:href="#aE"/><use transform="matrix(0.05,0,0,0.05,13.949999999999998,0)" xlink:href="#aD"/><use transform="matrix(0.05,0,0,0.05,22.95,0)" xlink:href="#aF"/></g><g id="al"><use transform="matrix(0.05,0,0,0.05,0,0)" xlink:href="#aB"/><use transform="matrix(0.05,0,0,0.05,5.95,0)" xlink:href="#aU"/><use transform="matrix(0.05,0,0,0.05,16.900000000000002,0)" xlink:href="#ao"/><use transform="matrix(0.05,0,0,0.05,22.85,0)" xlink:href="#az"/><use transform="matrix(0.05,0,0,0.05,32.85,0)" xlink:href="#ar"/></g><g id="am"><use transform="matrix(0.05,0,0,0.05,0,0)" xlink:href="#an"/><use transform="matrix(0.05,0,0,0.05,12,0)" xlink:href="#ao"/><use transform="matrix(0.05,0,0,0.05,17.95,0)" xlink:href="#ap"/><use transform="matrix(0.05,0,0,0.05,27.950000000000003,0)" xlink:href="#aq"/><use transform="matrix(0.05,0,0,0.05,37.95,0)" xlink:href="#ar"/><use transform="matrix(0.05,0,0,0.05,52.900000000000006,0)" xlink:href="#as"/><use transform="matrix(0.05,0,0,0.05,62.900000000000006,0)" xlink:href="#at"/><use transform="matrix(0.05,0,0,0.05,66.85000000000001,0)" xlink:href="#ap"/><use transform="matrix(0.05,0,0,0.05,76.85000000000001,0)" xlink:href="#aC"/><use transform="matrix(0.05,0,0,0.05,87.15,0)" xlink:href="#aE"/><use transform="matrix(0.05,0,0,0.05,91.10000000000001,0)" xlink:href="#ar"/><use transform="matrix(0.05,0,0,0.05,106.05000000000001,0)" xlink:href="#ap"/><use transform="matrix(0.05,0,0,0.05,116.05000000000001,0)" xlink:href="#ao"/><use transform="matrix(0.05,0,0,0.05,122,0)" xlink:href="#aN"/></g></defs></g></svg>